<?xml version="1.0" standalone="yes"?>
<svg xmlns="http://www.w3.org/2000/svg" width="474" height="474">
<path style="fill:#fbfcfd; stroke:none;" d="M0 0L0 474L356 474C353.218 462.157 342.484 450.258 336.05 440C320.978 415.968 305.808 392 290.681 368L273.681 341C271.941 338.239 267.79 333.641 268.113 330.185C268.607 324.918 286.58 315.921 291 313L291 309L286 306L283 310L282 304L279 304L280 296L278 295L277 295L278 300L277 300L275 296L263 302C261.432 297.718 257.333 287.428 251.896 287.358C241.092 287.218 228.14 294.329 217 295.715C187.661 299.366 156.154 294.424 130 280.136C105.513 266.758 84.9083 248.018 70.4498 224C30.3986 157.468 51.7157 69.5736 115 25.9761C132.532 13.8982 156.265 2.45108 178 2L178 0L0 0z"/>
<path style="fill:#acadb3; stroke:none;" d="M178 0L178 2L183 2L183 0L178 0z"/>
<path style="fill:#0e6eb4; stroke:none;" d="M183 0L184 3L157 6L154 7C151.379 10.2445 149.048 10.4982 145 10L144 14L140 12C140 16.0875 134.289 16.6924 131 16L131 17L134 18L134 19C129.4 19.2107 125.422 19.8113 123 24L119 23L116 29C113.077 28.9283 112.313 29.1078 112 32L105 33L105 34L107 33L107 34L102 36L99 38C98.0945 41.9335 95.9767 44.155 92 45C91.5763 50.8011 84.0483 57.5662 79 60L79 61L81 60L81 61L75 68L68 77L69 80L67 79L68 82L66 81C66.2711 85.4899 64.9436 89.6154 61 92L61 102L59 101C59 109.954 54.3124 121.05 51 129C49.5676 132.438 55.1578 141.289 50 140L50 157C53.9215 162.097 54.3371 172.851 53 179C57.7088 179 57.0081 188.864 56 192C60.0346 194.459 60.6746 198.525 60 203C63.7994 203 63.7829 207.025 63 210L67 218L69 217L68 220C71.5127 221.076 71.9494 223.526 72 227L76 230L74 229L74 230L77 230L76 233C78.2917 232.542 85.3446 240.086 81 239L81 240L84 240L95 255L105 263L104 261L105 261L110 268C115.441 268.011 118.378 272.197 122.965 274.523C134.409 280.327 147.487 288.143 160 291.066C178.974 295.5 200.758 296.027 220 293.385C230.746 291.91 241.156 287.926 252 287L251 284L255 283L260 280L259 277L270 272L269 274L270 274L271 271L274 271L280 263C284.447 263.438 287.22 262.679 288 258C293.083 259.693 295.703 257.735 300 255L299 257L300 257L300 253L301 252L304 253C303.302 248.81 310.807 242.452 313 243L311 241L313 238L317 238L317 237L315 238L315 237L322 231L321 228L324 228L327 223C326.452 219.712 328.224 214.306 331 215C330.211 211.055 336.14 195.285 339 196L337 192L340 193C338.696 189.089 339.837 181.209 343 182L344 177L344.91 139L343 115C340.146 115 341.33 113.314 342 111C338.901 111 332.606 89.744 333 86L330 82L328 83L320 66L322 67L322 66L315 59L317 60L317 59L313 59L312 53L304 49L303 48L304 46L301 47L293 34L288 30L284 31L283 30L284 27L281 25L276 22L273 23L274 21L271 19L265 16L262 17L263 15C254.631 15.5062 233.022 8.82468 227 3L218 4L218 3L221 3C208.86 -1.15268 195.776 0 183 0z"/>
<path style="fill:#acadb3; stroke:none;" d="M213 0L213 2L218 2L218 0L213 0z"/>
<path style="fill:#fbfcfd; stroke:none;" d="M218 0L218 2C233.816 2.67917 249.976 8.75833 264 15.7531C330.763 49.0529 361.344 125.857 338.806 196C333.616 212.152 324.772 227.691 314.338 241C309.959 246.585 299.572 253.591 297.241 260.039C295.248 265.552 302.64 269.703 302.579 274.907C302.54 278.168 298.522 279.069 297.878 282.015C297.13 285.439 302.106 290.52 304 293L299 291L299 296L303 294L306 296L304 300L309 299L309 300L301 306L294 304L294 305L297 306L287 304L287 305C298.915 310.572 306.561 303.797 317 297.42C320.254 295.432 327.61 288.692 331.621 290.878C339.712 295.288 347.11 314.179 352 322C368.31 348.085 384.918 373.979 401.319 400L416.424 424C417.908 426.373 421.175 429.853 420.462 432.896C419.374 437.541 409.726 441.333 406 443.681C395.654 450.202 385.289 456.697 375 463.308C370.135 466.434 363.853 468.798 361 474L474 474L474 0L218 0z"/>
<path style="fill:#acadb3; stroke:none;" d="M171 2L171 3L175 3L171 2z"/>
<path style="fill:#0e6eb4; stroke:none;" d="M175 2L176 3L175 2z"/>
<path style="fill:#1e608f; stroke:none;" d="M158 6L158 7L184 3C176.969 0.056488 165.164 4.14642 158 6M215 2L215 3L218 3L215 2z"/>
<path style="fill:#acadb3; stroke:none;" d="M221 2L221 3L224 3L221 2M167 3L167 4L170 4L167 3z"/>
<path style="fill:#0e6eb4; stroke:none;" d="M170 3L171 4L170 3z"/>
<path style="fill:#1e608f; stroke:none;" d="M218 3L218 4L226 4L218 3z"/>
<path style="fill:#acadb3; stroke:none;" d="M227 3L227 4L230 4L227 3M162 4L162 5L165 5L162 4z"/>
<path style="fill:#1e608f; stroke:none;" d="M227 4L227 5L262 16L262 15L227 4z"/>
<path style="fill:#0e6eb4; stroke:none;" d="M230.667 4.33334L231.333 4.66666L230.667 4.33334z"/>
<path style="fill:#acadb3; stroke:none;" d="M232.667 4.33334L233.333 4.66666L232.667 4.33334M158.667 5.33334L159.333 5.66666L158.667 5.33334z"/>
<path style="fill:#0e6eb4; stroke:none;" d="M234 5L235 6L234 5z"/>
<path style="fill:#acadb3; stroke:none;" d="M235 5L235 6L238 6L235 5M155.667 6.33334L156.333 6.66666L155.667 6.33334z"/>
<path style="fill:#1e608f; stroke:none;" d="M209 6L210 7L209 6z"/>
<path style="fill:#0e6eb4; stroke:none;" d="M238 6L239 7L238 6z"/>
<path style="fill:#acadb3; stroke:none;" d="M239.667 6.33334L240.333 6.66666L239.667 6.33334M152.667 7.33334L153.333 7.66666L152.667 7.33334z"/>
<path style="fill:#1e608f; stroke:none;" d="M155.667 7.33334L156.333 7.66666L155.667 7.33334z"/>
<path style="fill:#acadb3; stroke:none;" d="M242 7L242 8L245 8L242 7M149.667 8.33334L150.333 8.66666L149.667 8.33334z"/>
<path style="fill:#1e608f; stroke:none;" d="M146 10L146 11L154 8L146 10z"/>
<path style="fill:#0e6eb4; stroke:none;" d="M245 8L246 9L245 8z"/>
<path style="fill:#acadb3; stroke:none;" d="M246.667 8.33334L247.333 8.66666L246.667 8.33334M146.667 9.33334L147.333 9.66666L146.667 9.33334z"/>
<path style="fill:#0e6eb4; stroke:none;" d="M248 9L249 10L248 9z"/>
<path style="fill:#acadb3; stroke:none;" d="M249 9L250 10L249 9M144 10L145 11L144 10M251.667 10.3333L252.333 10.6667L251.667 10.3333M141.667 11.3333L142.333 11.6667L141.667 11.3333z"/>
<path style="fill:#1e608f; stroke:none;" d="M141 12L141 13L145 11L141 12z"/>
<path style="fill:#acadb3; stroke:none;" d="M254 11L255 12L254 11M139 12L140 13L139 12M256.667 12.3333L257.333 12.6667L256.667 12.3333M137 13L138 14L137 13z"/>
<path style="fill:#1e608f; stroke:none;" d="M132 16L132 17L141 14L132 16z"/>
<path style="fill:#acadb3; stroke:none;" d="M258.667 13.3333L259.333 13.6667L258.667 13.3333M134.667 14.3333L135.333 14.6667L134.667 14.3333z"/>
<path style="fill:#1e608f; stroke:none;" d="M205 15L205 16L221 17L205 15z"/>
<path style="fill:#0e6eb4; stroke:none;" d="M260 14L261 15L260 14z"/>
<path style="fill:#acadb3; stroke:none;" d="M261 14L262 15L261 14M132.667 15.3333L133.333 15.6667L132.667 15.3333z"/>
<path style="fill:#1e608f; stroke:none;" d="M140 26L140 28C135.021 27.7063 126.636 33.4457 123 37C130.156 36.7464 139.184 29.387 146 26.4244C160.467 20.1367 176.15 16.0104 192 16C175.475 9.06567 155.758 24.1128 140 26z"/>
<path style="fill:#acadb3; stroke:none;" d="M263 15L264 16L263 15M130 16L125 19L125 20L131 17L130 16z"/>
<path style="fill:#0e6eb4; stroke:none;" d="M182 16L183 17L182 16z"/>
<path style="fill:#acadb3; stroke:none;" d="M183 16L183 17L188 17L183 16z"/>
<path style="fill:#fbfcfd; stroke:none;" d="M188 16.4244C159.868 20.129 135.541 28.9008 113 46.669C55.1975 92.2322 51.2259 183.304 99.1736 237C128.691 270.057 173.488 285.268 217 279.715C235.84 277.31 255.342 270.374 271 259.564C308.708 233.53 332.996 190.478 330.961 144C327.835 72.6296 262.284 6.64218 188 16.4244z"/>
<path style="fill:#acadb3; stroke:none;" d="M208 16L208 17L213 17L208 16z"/>
<path style="fill:#0e6eb4; stroke:none;" d="M213.667 16.3333L214.333 16.6667L213.667 16.3333z"/>
<path style="fill:#1e608f; stroke:none;" d="M262.667 16.3333L263.333 16.6667L262.667 16.3333z"/>
<path style="fill:#acadb3; stroke:none;" d="M265 16L266 17L265 16z"/>
<path style="fill:#1e608f; stroke:none;" d="M126 19L126 20L134 19L126 19M135 17L136 18L135 17z"/>
<path style="fill:#0e6eb4; stroke:none;" d="M175 17L176 18L175 17z"/>
<path style="fill:#acadb3; stroke:none;" d="M176 17L176 18L179 18L176 17M216 17L216 18L221 18L216 17z"/>
<path style="fill:#1e608f; stroke:none;" d="M222 17L222 18L225 18L222 17M265 17L265 18L270 20L270 19L265 17z"/>
<path style="fill:#acadb3; stroke:none;" d="M267 17L268 18L267 17z"/>
<path style="fill:#1e608f; stroke:none;" d="M157 18L158 19L157 18z"/>
<path style="fill:#acadb3; stroke:none;" d="M170 18L170 19L173 19L170 18M222 18L222 19L226 19L222 18z"/>
<path style="fill:#1e608f; stroke:none;" d="M227 18L227 19L239 22L240 21L227 18M264 18L265 19L264 18z"/>
<path style="fill:#acadb3; stroke:none;" d="M269 18L270 19L269 18z"/>
<path style="fill:#0e6eb4; stroke:none;" d="M165 19L166 20L165 19z"/>
<path style="fill:#acadb3; stroke:none;" d="M166.667 19.3333L167.333 19.6667L166.667 19.3333M228.667 19.3333L229.333 19.6667L228.667 19.3333M271 19L274 21L274 20L271 19M123 20L124 21L123 20z"/>
<path style="fill:#1e608f; stroke:none;" d="M124.667 20.3333L125.333 20.6667L124.667 20.3333z"/>
<path style="fill:#0e6eb4; stroke:none;" d="M161 20L162 21L161 20z"/>
<path style="fill:#acadb3; stroke:none;" d="M162 20L162 21L165 21L162 20M232.667 20.3333L233.333 20.6667L232.667 20.3333z"/>
<path style="fill:#0e6eb4; stroke:none;" d="M237.333 20.6667L237.667 21.3333L237.333 20.6667z"/>
<path style="fill:#1e608f; stroke:none;" d="M271 20L272 21L271 20z"/>
<path style="fill:#acadb3; stroke:none;" d="M121 21L119 22L119 23L121 21z"/>
<path style="fill:#1e608f; stroke:none;" d="M120 24L124 21L120 24z"/>
<path style="fill:#0e6eb4; stroke:none;" d="M158 21L159 22L158 21z"/>
<path style="fill:#acadb3; stroke:none;" d="M159 21L160 22L159 21M235.667 21.3333L236.333 21.6667L235.667 21.3333z"/>
<path style="fill:#1e608f; stroke:none;" d="M272 21L273 22L272 21z"/>
<path style="fill:#acadb3; stroke:none;" d="M274 21L275 22L274 21z"/>
<path style="fill:#1e608f; stroke:none;" d="M124.667 22.3333L125.333 22.6667L124.667 22.3333z"/>
<path style="fill:#acadb3; stroke:none;" d="M156.667 22.3333L157.333 22.6667L156.667 22.3333M238.667 22.3333L239.333 22.6667L238.667 22.3333z"/>
<path style="fill:#1e608f; stroke:none;" d="M242 22L242 23L273 38L272 34L254 25L242 22M273.667 22.3333L274.333 22.6667L273.667 22.3333z"/>
<path style="fill:#acadb3; stroke:none;" d="M276 22L278 24L276 22M118 23L117 25L118 23z"/>
<path style="fill:#0e6eb4; stroke:none;" d="M152 23L153 24L152 23z"/>
<path style="fill:#acadb3; stroke:none;" d="M153.667 23.3333L154.333 23.6667L153.667 23.3333M242 23L243 24L242 23z"/>
<path style="fill:#0e6eb4; stroke:none;" d="M243 23L244 24L243 23z"/>
<path style="fill:#1e608f; stroke:none;" d="M275 23L280 26L280 25L275 23M118.667 24.3333L119.333 24.6667L118.667 24.3333z"/>
<path style="fill:#acadb3; stroke:none;" d="M150.667 24.3333L151.333 24.6667L150.667 24.3333M245 24L246 25L245 24z"/>
<path style="fill:#0e6eb4; stroke:none;" d="M278 24L279 25L278 24z"/>
<path style="fill:#acadb3; stroke:none;" d="M279 24L280 25L279 24M115 25L114 27L115 25z"/>
<path style="fill:#1e608f; stroke:none;" d="M107 33L112 32C112.284 29.2511 113.299 28.901 116 29L118 25L107 33M138 25L139 26L138 25z"/>
<path style="fill:#acadb3; stroke:none;" d="M148 25L149 26L148 25M247 25L248 26L247 25z"/>
<path style="fill:#0e6eb4; stroke:none;" d="M248 25L249 26L248 25z"/>
<path style="fill:#acadb3; stroke:none;" d="M145.667 26.3333L146.333 26.6667L145.667 26.3333M249.667 26.3333L250.333 26.6667L249.667 26.3333z"/>
<path style="fill:#1e608f; stroke:none;" d="M255 26L256 27L255 26M281 26L283 28L281 26z"/>
<path style="fill:#acadb3; stroke:none;" d="M282 26L283 27L282 26M112 27L113 28L112 27M143 27L144 28L143 27M252 27L253 28L252 27M111 28L112 29L111 28M141 28L142 29L141 28M254 28L255 29L254 28z"/>
<path style="fill:#1e608f; stroke:none;" d="M283 28L286 31L283 28z"/>
<path style="fill:#acadb3; stroke:none;" d="M285 28L286 29L285 28M109.667 29.3333L110.333 29.6667L109.667 29.3333z"/>
<path style="fill:#1e608f; stroke:none;" d="M117 30L117 31L122 32L120 29L117 30z"/>
<path style="fill:#0e6eb4; stroke:none;" d="M136 29L137 30L136 29z"/>
<path style="fill:#acadb3; stroke:none;" d="M139 29L140 30L139 29M256.667 29.3333L257.333 29.6667L256.667 29.3333M286 29L287 30L286 29M108 30L109 31L108 30z"/>
<path style="fill:#0e6eb4; stroke:none;" d="M135 30L134 32L135 30z"/>
<path style="fill:#acadb3; stroke:none;" d="M137 30L138 31L137 30M259 30L260 31L259 30M288 30L292 34L288 30M107 31L108 32L107 31M135 31L136 32L135 31M260 31L261 32L260 31z"/>
<path style="fill:#1e608f; stroke:none;" d="M287 31L290 33L287 31z"/>
<path style="fill:#acadb3; stroke:none;" d="M105 32L106 33L105 32M133.667 32.3333L134.333 32.6667L133.667 32.3333M262 32L265 34L265 33L262 32z"/>
<path style="fill:#0e6eb4; stroke:none;" d="M263 32L264 33L263 32z"/>
<path style="fill:#acadb3; stroke:none;" d="M104 33L102 36L104 33z"/>
<path style="fill:#1e608f; stroke:none;" d="M106 33L103 37L106 33z"/>
<path style="fill:#0e6eb4; stroke:none;" d="M131 33L132 34L131 33z"/>
<path style="fill:#acadb3; stroke:none;" d="M132 33L133 34L132 33z"/>
<path style="fill:#1e608f; stroke:none;" d="M269 33L270 34L269 33M290 33L291 34L290 33M120 34L122 36L120 34z"/>
<path style="fill:#0e6eb4; stroke:none;" d="M129 34L130 35L129 34z"/>
<path style="fill:#acadb3; stroke:none;" d="M130 34L131 35L130 34M266 34L267 35L266 34z"/>
<path style="fill:#1e608f; stroke:none;" d="M291 34L292 35L291 34M109 38L114 38C112.22 35.6263 110.78 35.6263 109 38z"/>
<path style="fill:#acadb3; stroke:none;" d="M128.667 35.3333L129.333 35.6667L128.667 35.3333M267 35L268 36L267 35z"/>
<path style="fill:#1e608f; stroke:none;" d="M292 35L292 36L301 47L304 46L304 49L311 54C307.664 46.8473 299.153 38.3355 292 35z"/>
<path style="fill:#acadb3; stroke:none;" d="M294 35L295 36L294 35M101 36L100 38L101 36M127 36L128 37L127 36M269 36L270 37L269 36M295 36L296 37L295 36z"/>
<path style="fill:#1e608f; stroke:none;" d="M100 39L103 37L100 39z"/>
<path style="fill:#acadb3; stroke:none;" d="M125 37L126 38L125 37z"/>
<path style="fill:#1e608f; stroke:none;" d="M288 37L290 39L288 37z"/>
<path style="fill:#acadb3; stroke:none;" d="M296 37L297 38L296 37M98 38L92 45L98 38z"/>
<path style="fill:#1e608f; stroke:none;" d="M122 38L116 41L116 44L117 44L123 39L122 38z"/>
<path style="fill:#acadb3; stroke:none;" d="M124 38L125 39L124 38M272 38L273 39L272 38z"/>
<path style="fill:#1e608f; stroke:none;" d="M274 38L289 50L285 47L286 45L274 38z"/>
<path style="fill:#acadb3; stroke:none;" d="M297 38L298 39L297 38z"/>
<path style="fill:#1e608f; stroke:none;" d="M93 46L100 39L93 46z"/>
<path style="fill:#acadb3; stroke:none;" d="M122 39L123 40L122 39M273 39L274 40L273 39z"/>
<path style="fill:#0e6eb4; stroke:none;" d="M274 39L275 40L274 39z"/>
<path style="fill:#acadb3; stroke:none;" d="M298 39L299 40L298 39z"/>
<path style="fill:#0e6eb4; stroke:none;" d="M120 40L118 41L118 42L120 40z"/>
<path style="fill:#acadb3; stroke:none;" d="M121 40L122 41L121 40M275 40L276 41L275 40M299 40L300 41L299 40M120 41L121 42L120 41M276 41L277 42L276 41z"/>
<path style="fill:#1e608f; stroke:none;" d="M282 41L283 42L282 41z"/>
<path style="fill:#acadb3; stroke:none;" d="M300 41L301 42L300 41M118 42L119 43L118 42M278 42L279 43L278 42z"/>
<path style="fill:#0e6eb4; stroke:none;" d="M301 42L302 43L301 42z"/>
<path style="fill:#acadb3; stroke:none;" d="M117 43L118 44L117 43M279 43L280 44L279 43z"/>
<path style="fill:#0e6eb4; stroke:none;" d="M281 43L282 44L281 43M302 43L303 44L302 43z"/>
<path style="fill:#1e608f; stroke:none;" d="M114 44L92 64L91 69L89 68L80 86L81 86L89 70L106 53.0895L114 44z"/>
<path style="fill:#acadb3; stroke:none;" d="M280 44L281 45L280 44z"/>
<path style="fill:#1e608f; stroke:none;" d="M286 44L287 45L286 44z"/>
<path style="fill:#0e6eb4; stroke:none;" d="M303 44L304 45L303 44z"/>
<path style="fill:#acadb3; stroke:none;" d="M91 45L92 46L91 45M114 45L115 46L114 45M281 45L282 46L281 45z"/>
<path style="fill:#0e6eb4; stroke:none;" d="M282 45L283 46L282 45z"/>
<path style="fill:#1e608f; stroke:none;" d="M299 45L300 46L299 45z"/>
<path style="fill:#acadb3; stroke:none;" d="M304 45L305 46L304 45z"/>
<path style="fill:#1e608f; stroke:none;" d="M91 46L81 60L93 46L91 46z"/>
<path style="fill:#acadb3; stroke:none;" d="M113 46L114 47L113 46M283 46L284 47L283 46M305 46L306 47L305 46M89 47L88 49L89 47z"/>
<path style="fill:#1e608f; stroke:none;" d="M93 47L94 48L93 47z"/>
<path style="fill:#acadb3; stroke:none;" d="M284 47L285 48L284 47z"/>
<path style="fill:#1e608f; stroke:none;" d="M297 47L298 48L297 47z"/>
<path style="fill:#acadb3; stroke:none;" d="M306 47L307 48L306 47z"/>
<path style="fill:#0e6eb4; stroke:none;" d="M89 48L90 49L89 48z"/>
<path style="fill:#acadb3; stroke:none;" d="M285 48L286 49L285 48M307 48L308 49L307 48M286 49L287 50L286 49z"/>
<path style="fill:#1e608f; stroke:none;" d="M294 49L295 50L294 49M305 49L306 50L305 49z"/>
<path style="fill:#acadb3; stroke:none;" d="M308 49L309 50L308 49M87 50L88 51L87 50z"/>
<path style="fill:#0e6eb4; stroke:none;" d="M108 50L109 51L108 50z"/>
<path style="fill:#acadb3; stroke:none;" d="M287 50L288 51L287 50z"/>
<path style="fill:#1e608f; stroke:none;" d="M289 51C307.098 72.3882 326.592 95.524 329 125L330 125C332.136 99.3662 309.105 80.0828 301 58L289 51M293 50L294 51L293 50z"/>
<path style="fill:#acadb3; stroke:none;" d="M309 50L310 51L309 50M86 51L87 52L86 51M107 51L108 52L107 51M288 51L289 52L288 51M310 51L311 52L310 51M85 52L86 53L85 52M106 52L107 53L106 52z"/>
<path style="fill:#0e6eb4; stroke:none;" d="M290 52L291 53L290 52M292 52L295 55L292 52z"/>
<path style="fill:#acadb3; stroke:none;" d="M311 52L312 53L311 52M84 53L85 54L84 53z"/>
<path style="fill:#1e608f; stroke:none;" d="M95 53L96 54L95 53z"/>
<path style="fill:#acadb3; stroke:none;" d="M105 53L106 54L105 53M83 54L84 55L83 54M104 54L105 55L104 54M291 54L293 56L291 54z"/>
<path style="fill:#0e6eb4; stroke:none;" d="M292 54L293 55L292 54z"/>
<path style="fill:#1e608f; stroke:none;" d="M311 54L315 59L311 54z"/>
<path style="fill:#acadb3; stroke:none;" d="M312 54L314 56L314 54L312 54M82 55L83 56L82 55M103 55L104 56L103 55z"/>
<path style="fill:#0e6eb4; stroke:none;" d="M293 55L294 56L293 55z"/>
<path style="fill:#1e608f; stroke:none;" d="M305 55L306 56L305 55z"/>
<path style="fill:#0e6eb4; stroke:none;" d="M82 56L83 57L82 56z"/>
<path style="fill:#acadb3; stroke:none;" d="M102 56L103 57L102 56M294 56L297 60L294 56z"/>
<path style="fill:#1e608f; stroke:none;" d="M302 56L303 57L302 56z"/>
<path style="fill:#acadb3; stroke:none;" d="M314 56L315 57L314 56M81 57L82 58L81 57M101 57L102 58L101 57z"/>
<path style="fill:#1e608f; stroke:none;" d="M301 57L302 58L301 57z"/>
<path style="fill:#acadb3; stroke:none;" d="M315 57L316 58L315 57M80 58L81 59L80 58M100 58L101 59L100 58z"/>
<path style="fill:#0e6eb4; stroke:none;" d="M296 58L297 59L296 58z"/>
<path style="fill:#acadb3; stroke:none;" d="M316 58L317 59L316 58M79 59L80 60L79 59z"/>
<path style="fill:#0e6eb4; stroke:none;" d="M99 59L100 60L99 59z"/>
<path style="fill:#1e608f; stroke:none;" d="M302 59L303 60L302 59M315 59L318 62L315 59M80 60L69 78L75 68C78.0245 67.5595 80.4629 62.9687 80 60z"/>
<path style="fill:#0e6eb4; stroke:none;" d="M98 60L99 61L98 60z"/>
<path style="fill:#acadb3; stroke:none;" d="M297 60L298 61L297 60z"/>
<path style="fill:#0e6eb4; stroke:none;" d="M300 60L301 61L300 60z"/>
<path style="fill:#acadb3; stroke:none;" d="M317 60L318 61L317 60M78 61L79 62L78 61z"/>
<path style="fill:#0e6eb4; stroke:none;" d="M97 61L98 62L97 61z"/>
<path style="fill:#acadb3; stroke:none;" d="M298 61L299 62L298 61M318 61L319 62L318 61M77 62L78 63L77 62M299 62L300 63L299 62z"/>
<path style="fill:#0e6eb4; stroke:none;" d="M301 62L302 63L301 62z"/>
<path style="fill:#1e608f; stroke:none;" d="M81 63L82 64L81 63z"/>
<path style="fill:#acadb3; stroke:none;" d="M300 63L301 64L300 63z"/>
<path style="fill:#1e608f; stroke:none;" d="M317 63L318 64L317 63z"/>
<path style="fill:#acadb3; stroke:none;" d="M319 63L321 65L319 63M95 64L96 65L95 64z"/>
<path style="fill:#0e6eb4; stroke:none;" d="M301 64L303 66L301 64z"/>
<path style="fill:#1e608f; stroke:none;" d="M319 64L320 65L319 64z"/>
<path style="fill:#acadb3; stroke:none;" d="M75 65L76 66L75 65M94 65L95 66L94 65M301 65L302 66L301 65M321 65L322 66L321 65M74 66L75 67L74 66z"/>
<path style="fill:#1e608f; stroke:none;" d="M90 66L91 67L90 66z"/>
<path style="fill:#0e6eb4; stroke:none;" d="M93 66L94 67L93 66z"/>
<path style="fill:#acadb3; stroke:none;" d="M302 66L303 67L302 66z"/>
<path style="fill:#1e608f; stroke:none;" d="M320 66L328 83L330 82L331 86L332 86C329.977 79.1236 325.476 70.6593 320 66z"/>
<path style="fill:#acadb3; stroke:none;" d="M303 67L304 68L303 67M322 67L323 68L322 67M73 68L74 69L73 68M92 68L93 69L92 68M219 68L217 72L218 72L219 68z"/>
<path style="fill:#0e6eb4; stroke:none;" d="M220 68L221 69L220 68z"/>
<path style="fill:#1e608f; stroke:none;" d="M220 77L220 78C202.518 99.0985 199.455 131.343 180 151L179 151L160 130C164.25 137.353 170.723 143.176 175.852 149.91C177.568 152.164 177.866 156.328 180.32 157.806C185.057 160.657 189.148 154.287 185 151C184.953 152.657 182.048 158.818 180.608 154.667C179.858 152.505 188.388 143.727 189.753 141C197.76 125.006 205.535 108.874 213.778 93C216.531 87.6985 221.026 65.8093 226 75C219.978 78.5377 226.905 88.0742 229 93C234.945 106.982 240.703 121.045 246.719 135C248.736 139.679 250.57 148.077 254.638 151.353C258.229 154.245 266.359 149.008 270 147.551C282.059 142.723 293.975 137.498 306 132.577C310.293 130.82 315.684 131.921 319 129L313 129L314 124L320 127L321 127C320.094 124.016 317.965 121.12 314.316 122.762C311.355 124.094 311.166 128.275 307.941 129.945C291.304 138.563 272.332 142.706 256 152C247.614 131.561 238.475 111.406 229.988 91C228.546 87.5325 226.042 83.8181 225.789 80C225.559 76.5316 228.208 72.4415 224.682 69.7863C219.779 66.0942 215.481 73.5094 220 77z"/>
<path style="fill:#0e6eb4; stroke:none;" d="M223 68L224 69L223 68z"/>
<path style="fill:#acadb3; stroke:none;" d="M224 68L225 69L224 68z"/>
<path style="fill:#0e6eb4; stroke:none;" d="M304 68L305 69L304 68z"/>
<path style="fill:#acadb3; stroke:none;" d="M323.333 68.6667L323.667 69.3333L323.333 68.6667M91 69L92 70L91 69M225 69L227 71L227 69L225 69z"/>
<path style="fill:#0e6eb4; stroke:none;" d="M305 69L307 71L305 69z"/>
<path style="fill:#acadb3; stroke:none;" d="M72 70L73 71L72 70z"/>
<path style="fill:#0e6eb4; stroke:none;" d="M89.6667 70.3333L90.3333 70.6667L89.6667 70.3333M222 79L223 79L226 75C223.651 67.591 218.739 72.6401 222 79z"/>
<path style="fill:#acadb3; stroke:none;" d="M305 70L306 71L305 70M324 70L325 71L324 70M71 71L72 72L71 71M227 71L227 75L228 75L227 71M306 71L307 72L306 71z"/>
<path style="fill:#0e6eb4; stroke:none;" d="M324 71L325 72L324 71z"/>
<path style="fill:#1e608f; stroke:none;" d="M81 72L82 73L81 72z"/>
<path style="fill:#acadb3; stroke:none;" d="M89 72L90 73L89 72M307.333 72.6667L307.667 73.3333L307.333 72.6667M325 72L326 73L325 72M70 73L71 74L70 73M88 73L89 74L88 73M326.333 73.6667L326.667 74.3333L326.333 73.6667z"/>
<path style="fill:#1e608f; stroke:none;" d="M80 74L81 77L82 77L80 74z"/>
<path style="fill:#0e6eb4; stroke:none;" d="M87 74L88 75L87 74M217 74L218 75L217 74z"/>
<path style="fill:#acadb3; stroke:none;" d="M308 74L309 75L308 74M69 75L70 76L69 75M87 75L88 76L87 75M217 75L218 76L217 75z"/>
<path style="fill:#0e6eb4; stroke:none;" d="M309 75L310 76L309 75z"/>
<path style="fill:#acadb3; stroke:none;" d="M327 75L328 76L327 75M68 76L69 77L68 76M86 76L87 77L86 76M226 76L227 77L226 76M309 76L310 77L309 76z"/>
<path style="fill:#0e6eb4; stroke:none;" d="M327 76L328 77L327 76M219 77L220 78L219 77z"/>
<path style="fill:#acadb3; stroke:none;" d="M225 77L226 78L225 77M310 77L311 78L310 77M328 77L329 80L330 80L328 77M67 78L68 79L67 78z"/>
<path style="fill:#1e608f; stroke:none;" d="M68.3333 78.6667L68.6667 79.3333L68.3333 78.6667z"/>
<path style="fill:#acadb3; stroke:none;" d="M85 78L86 79L85 78M221 78L222 79L221 78z"/>
<path style="fill:#0e6eb4; stroke:none;" d="M311 78L312 79L311 78z"/>
<path style="fill:#1e608f; stroke:none;" d="M319 78L320 79L319 78z"/>
<path style="fill:#0e6eb4; stroke:none;" d="M328 78L329 79L328 78z"/>
<path style="fill:#1e608f; stroke:none;" d="M81 79L82 80L81 79z"/>
<path style="fill:#0e6eb4; stroke:none;" d="M84 79L85 80L84 79z"/>
<path style="fill:#acadb3; stroke:none;" d="M218 79L219 80L218 79M220 79L221 80L220 79M311 79L312 80L311 79z"/>
<path style="fill:#1e608f; stroke:none;" d="M325 79L326 80L325 79z"/>
<path style="fill:#acadb3; stroke:none;" d="M66 80L67 81L66 80z"/>
<path style="fill:#1e608f; stroke:none;" d="M67.3333 80.6667L67.6667 81.3333L67.3333 80.6667z"/>
<path style="fill:#acadb3; stroke:none;" d="M223 80L224 81L223 80M225 80L226 81L225 80M312 80L314 83L312 80M83 81L84 82L83 81M217 81L218 82L217 81M219 81L220 82L219 81z"/>
<path style="fill:#0e6eb4; stroke:none;" d="M313 81L314 82L313 81z"/>
<path style="fill:#acadb3; stroke:none;" d="M330 81L331 82L330 81M65 82L66 83L65 82z"/>
<path style="fill:#1e608f; stroke:none;" d="M66 82L62 92C65.0426 89.769 67.0191 85.7144 66 82z"/>
<path style="fill:#acadb3; stroke:none;" d="M224.333 82.6667L224.667 83.3333L224.333 82.6667M226.333 82.6667L226.667 83.3333L226.333 82.6667M82 83L83 84L82 83M216 83L217 84L216 83M218 83L219 84L218 83z"/>
<path style="fill:#0e6eb4; stroke:none;" d="M314 83L315 84L314 83z"/>
<path style="fill:#acadb3; stroke:none;" d="M331 83L332 84L331 83M64 84L65 85L64 84M225.333 84.6667L225.667 85.3333L225.333 84.6667M227.333 84.6667L227.667 85.3333L227.333 84.6667M314 84L315 85L314 84M81 85L82 86L81 85M215 85L216 86L215 85M217.333 85.6667L217.667 86.3333L217.333 85.6667z"/>
<path style="fill:#0e6eb4; stroke:none;" d="M315 85L316 86L315 85z"/>
<path style="fill:#acadb3; stroke:none;" d="M332 85L333 86L332 85M63.3333 86.6667L63.6667 87.3333L63.3333 86.6667M214.333 86.6667L214.667 87.3333L214.333 86.6667M228.333 86.6667L228.667 87.3333L228.333 86.6667M315 86L316 87L315 86z"/>
<path style="fill:#1e608f; stroke:none;" d="M79 87L76 94L77 94L79 87z"/>
<path style="fill:#acadb3; stroke:none;" d="M80 87L81 88L80 87M226 87L227 88L226 87z"/>
<path style="fill:#0e6eb4; stroke:none;" d="M316 87L317 88L316 87z"/>
<path style="fill:#1e608f; stroke:none;" d="M332 87L340 112L341 112C340.359 104.157 337.555 92.7428 332 87z"/>
<path style="fill:#acadb3; stroke:none;" d="M333 87L334 88L333 87M62.3333 88.6667L62.6667 89.3333L62.3333 88.6667z"/>
<path style="fill:#0e6eb4; stroke:none;" d="M79 88L80 89L79 88z"/>
<path style="fill:#1e608f; stroke:none;" d="M325 88L326 89L325 88z"/>
<path style="fill:#acadb3; stroke:none;" d="M79 89L80 90L79 89M213 89L214 90L213 89M215.333 89.6667L215.667 90.3333L215.333 89.6667M227.333 89.6667L227.667 90.3333L227.333 89.6667M229 89L230 90L229 89M317 89L318 90L317 89M334 89L335 90L334 89z"/>
<path style="fill:#0e6eb4; stroke:none;" d="M78 90L79 91L78 90z"/>
<path style="fill:#acadb3; stroke:none;" d="M134 90L134 91L138 91L134 90M61 91L62 92L61 91M78 91L79 92L78 91M126 91L126 92L131 92L126 91M141 91L141 92L147 93L141 91M212 91L213 92L212 91M214 91L215 92L214 91M228.333 91.6667L228.667 92.3333L228.333 91.6667M230.333 91.6667L230.667 92.3333L230.333 91.6667z"/>
<path style="fill:#0e6eb4; stroke:none;" d="M318 91L319 92L318 91z"/>
<path style="fill:#1e608f; stroke:none;" d="M73 92L74 93L73 92z"/>
<path style="fill:#acadb3; stroke:none;" d="M318 92L319 93L318 92M335 92L336 93L335 92M60.3333 93.6667L60.6667 94.3333L60.3333 93.6667z"/>
<path style="fill:#1e608f; stroke:none;" d="M61.3333 93.6667L61.6667 94.3333L61.3333 93.6667z"/>
<path style="fill:#acadb3; stroke:none;" d="M77 93L78 94L77 93M119.333 93.6667L119.667 94.3333L119.333 93.6667M134 93L134 94L139 94L134 93M152.333 93.6667L152.667 94.3333L152.333 93.6667M211 93L212 94L211 93M213.333 93.6667L213.667 94.3333L213.333 93.6667z"/>
<path style="fill:#0e6eb4; stroke:none;" d="M319 93L320 94L319 93z"/>
<path style="fill:#1e608f; stroke:none;" d="M332 93L333 94L332 93z"/>
<path style="fill:#acadb3; stroke:none;" d="M127 94L127 95L130 95L127 94M142.667 94.3333L143.333 94.6667L142.667 94.3333M229 94L230 95L229 94M231 94L232 95L231 94M319 94L320 95L319 94M336.333 94.6667L336.667 95.3333L336.333 94.6667z"/>
<path style="fill:#1e608f; stroke:none;" d="M60 95L52 128L53 128L59 101L61 102L60 95M75 95L70 110L71 110L75 95z"/>
<path style="fill:#acadb3; stroke:none;" d="M76 95L77 96L76 95M114 95L114 96L118 96L114 95M210 95L211 96L210 95M212 95L213 96L212 95z"/>
<path style="fill:#1e608f; stroke:none;" d="M330.667 95.3333L331.333 95.6667L330.667 95.3333z"/>
<path style="fill:#acadb3; stroke:none;" d="M59 96L60 97L59 96M230.333 96.6667L230.667 97.3333L230.333 96.6667M232.333 96.6667L232.667 97.3333L232.333 96.6667M320 96L321 97L320 96M75 97L76 98L75 97M209 97L210 98L209 97M211 97L212 98L211 97M337 97L338 98L337 97M109 98L109 100L111 98L109 98z"/>
<path style="fill:#0e6eb4; stroke:none;" d="M231 98L232 99L231 98z"/>
<path style="fill:#acadb3; stroke:none;" d="M321.333 98.6667L321.667 99.3333L321.333 98.6667M58 99L59 100L58 99z"/>
<path style="fill:#0e6eb4; stroke:none;" d="M74 99L75 100L74 99z"/>
<path style="fill:#acadb3; stroke:none;" d="M208 99L209 100L208 99M210.333 99.6667L210.667 100.333L210.333 99.6667M231 99L232 100L231 99M233 99L234 100L233 99M338.333 99.6667L338.667 100.333L338.333 99.6667M74 100L75 101L74 100z"/>
<path style="fill:#0e6eb4; stroke:none;" d="M322 100L323 101L322 100z"/>
<path style="fill:#acadb3; stroke:none;" d="M57.3333 101.667L57.6667 102.333L57.3333 101.667M106 101L106 103L108 101L106 101M111.333 101.667L111.667 102.333L111.333 101.667M207 101L208 102L207 101M209.333 101.667L209.667 102.333L209.333 101.667M232 101L233 102L232 101M234 101L235 102L234 101M322.333 101.667L322.667 102.333L322.333 101.667M73.3333 102.667L73.6667 103.333L73.3333 102.667M206.333 102.667L206.667 103.333L206.333 102.667M339.333 102.667L339.667 103.333L339.333 102.667M103 103L104 104L103 103M208 103L209 104L208 103M235.333 103.667L235.667 104.333L235.333 103.667z"/>
<path style="fill:#0e6eb4; stroke:none;" d="M323 103L324 104L323 103z"/>
<path style="fill:#acadb3; stroke:none;" d="M56.3333 104.667L56.6667 105.333L56.3333 104.667M323 104L324 105L323 104M72.3333 105.667L72.6667 106.333L72.3333 105.667M205 105L206 106L205 105M207 105L208 106L207 105M236.333 105.667L236.667 106.333L236.333 105.667M340.333 105.667L340.667 106.333L340.333 105.667z"/>
<path style="fill:#0e6eb4; stroke:none;" d="M56 106L57 107L56 106z"/>
<path style="fill:#acadb3; stroke:none;" d="M234 106L235 107L234 106M324.333 106.667L324.667 107.333L324.333 106.667M100.333 107.667L100.667 108.333L100.333 107.667M204 107L205 108L204 107M206 107L207 108L206 107z"/>
<path style="fill:#0e6eb4; stroke:none;" d="M340 107L341 108L340 107z"/>
<path style="fill:#acadb3; stroke:none;" d="M55.3333 108.667L55.6667 109.333L55.3333 108.667M71.3333 108.667L71.6667 109.333L71.3333 108.667M235.333 108.667L235.667 109.333L235.333 108.667M237 108L238 109L237 108M103 109L103 112L104 112L103 109M203 109L204 110L203 109M205.333 109.667L205.667 110.333L205.333 109.667z"/>
<path style="fill:#0e6eb4; stroke:none;" d="M325 109L326 110L325 109z"/>
<path style="fill:#acadb3; stroke:none;" d="M341.333 109.667L341.667 110.333L341.333 109.667M238.333 110.667L238.667 111.333L238.333 110.667M325 110L326 111L325 110M98 111L99 112L98 111M202 111L203 112L202 111M204 111L205 112L204 111M236 111L237 112L236 111M54.3333 112.667L54.6667 113.333L54.3333 112.667z"/>
<path style="fill:#1e608f; stroke:none;" d="M65 112L66 113L65 112M68 112L69 113L68 112z"/>
<path style="fill:#acadb3; stroke:none;" d="M70.3333 112.667L70.6667 113.333L70.3333 112.667z"/>
<path style="fill:#0e6eb4; stroke:none;" d="M326 112L327 113L326 112z"/>
<path style="fill:#1e608f; stroke:none;" d="M341 112L341 116L342 116L341 112M69 113L65 134L66 134L69 113z"/>
<path style="fill:#acadb3; stroke:none;" d="M201 113L202 114L201 113M203 113L204 114L203 113M237 113L238 114L237 113M239 113L240 114L239 113M326.333 113.667L326.667 114.333L326.333 113.667M342.333 113.667L342.667 114.333L342.333 113.667z"/>
<path style="fill:#0e6eb4; stroke:none;" d="M54 114L55 115L54 114M69 115L70 116L69 115z"/>
<path style="fill:#acadb3; stroke:none;" d="M200 115L201 116L200 115M202.333 115.667L202.667 116.333L202.333 115.667M238.333 115.667L238.667 116.333L238.333 115.667M240 115L241 116L240 115M53.3333 116.667L53.6667 117.333L53.3333 116.667M69 116L70 117L69 116z"/>
<path style="fill:#0e6eb4; stroke:none;" d="M327 116L328 117L327 116z"/>
<path style="fill:#1e608f; stroke:none;" d="M342 116L344.996 143L343 176L344 176C344.777 157.908 351.023 132.968 342 116z"/>
<path style="fill:#acadb3; stroke:none;" d="M199 117L200 118L199 117M201.333 117.667L201.667 118.333L201.333 117.667M327.333 117.667L327.667 118.333L327.333 117.667M343 117L343 120L344 120L343 117z"/>
<path style="fill:#0e6eb4; stroke:none;" d="M68 118L69 119L68 118z"/>
<path style="fill:#acadb3; stroke:none;" d="M198.333 118.667L198.667 119.333L198.333 118.667M239 118L240 119L239 118M241 118L242 119L241 118M68 119L68 122L69 122L68 119M200 119L201 120L200 119M52 120L52 123L53 123L52 120M159 120L160 121L159 120M240.333 120.667L240.667 121.333L240.333 120.667M242 120L243 121L242 120z"/>
<path style="fill:#0e6eb4; stroke:none;" d="M328 120L329 121L328 120z"/>
<path style="fill:#acadb3; stroke:none;" d="M149.333 121.667L149.667 122.333L149.333 121.667M150 126L151 126C154.649 121.666 158.173 122.162 161 127C162.042 119.304 152.635 120.777 150 126M197 121L198 122L197 121M199 121L200 122L199 121M314 121L314 122L319 122L314 121M328 121L328 124L329 124L328 121M91 122L90 128L91 128L91 122z"/>
<path style="fill:#0e6eb4; stroke:none;" d="M153 122L151 130L158 132L162 131L153 122z"/>
<path style="fill:#1e608f; stroke:none;" d="M154 122L154 123L161 128C159.854 123.85 158.28 122.491 154 122z"/>
<path style="fill:#acadb3; stroke:none;" d="M241.333 122.667L241.667 123.333L241.333 122.667M243.333 122.667L243.667 123.333L243.333 122.667M313 122L314 123L313 122z"/>
<path style="fill:#0e6eb4; stroke:none;" d="M319 122L320 123L319 122z"/>
<path style="fill:#acadb3; stroke:none;" d="M344 122L344 125L345 125L344 122M144 123L145 124L144 123M147.333 123.667L147.667 124.333L147.333 123.667z"/>
<path style="fill:#1e608f; stroke:none;" d="M152 123L151 129L152 129L154 123L152 123z"/>
<path style="fill:#acadb3; stroke:none;" d="M167.333 123.667L167.667 124.333L167.333 123.667M196 123L197 124L196 123M198.333 123.667L198.667 124.333L198.333 123.667M320 123L321 124L320 123M67 124L67 127L68 127L67 124M242.333 124.667L242.667 125.333L242.333 124.667M244.333 124.667L244.667 125.333L244.333 124.667M311 124L310 129L311 124z"/>
<path style="fill:#0e6eb4; stroke:none;" d="M314 124L313 129L319 129L318 131L319 131L320 124L314 124z"/>
<path style="fill:#acadb3; stroke:none;" d="M321 124L320 130L321 130L321 124M94 125L93 128L94 125z"/>
<path style="fill:#0e6eb4; stroke:none;" d="M160 125L161 126L160 125z"/>
<path style="fill:#acadb3; stroke:none;" d="M195 125L196 126L195 125M197.333 125.667L197.667 126.333L197.333 125.667z"/>
<path style="fill:#0e6eb4; stroke:none;" d="M344 125L345 126L344 125z"/>
<path style="fill:#acadb3; stroke:none;" d="M51 126L51 129L52 129L51 126M136.333 126.667L136.667 127.333L136.333 126.667M145 126L146 127L145 126M329 126L329 129L330 129L329 126M148 127L147 129L148 127M165 127L166 128L165 127M194 127L195 128L194 127M196 127L197 128L196 127M243 127L244 128L243 127M245 127L246 128L245 127M150.333 128.667L150.667 129.333L150.333 128.667z"/>
<path style="fill:#1e608f; stroke:none;" d="M153 128L154 129L153 128M320 128L321 129L320 128M330 128L330 131L331 131L330 128z"/>
<path style="fill:#acadb3; stroke:none;" d="M345 128L345 133L346 133L345 128z"/>
<path style="fill:#1e608f; stroke:none;" d="M152 129C153.083 142.017 139.765 160.053 134.654 172C132.243 177.636 134.048 186.326 126 185L126 181L125 181C125.388 184.704 128.262 190.603 132.383 185.677C134.977 182.577 135.337 174.994 137.011 171C142.487 157.93 147.974 142.672 156 131L152 129z"/>
<path style="fill:#acadb3; stroke:none;" d="M161 129L162 130L161 129M193 129L194 130L193 129M195 129L196 130L195 129z"/>
<path style="fill:#0e6eb4; stroke:none;" d="M244 129L245 130L244 129z"/>
<path style="fill:#acadb3; stroke:none;" d="M246.333 129.667L246.667 130.333L246.333 129.667M308.667 129.333L309.333 129.667L308.667 129.333M66 130L66 135L67 135L66 130M145.333 130.667L145.667 131.333L145.333 130.667M151 130L152 131L151 130z"/>
<path style="fill:#1e608f; stroke:none;" d="M156 130L157 131L156 130M158 130L159 131L158 130z"/>
<path style="fill:#acadb3; stroke:none;" d="M162 130L163 131L162 130M164 130L165 131L164 130M244 130L245 131L244 130M306 130L307 131L306 130z"/>
<path style="fill:#0e6eb4; stroke:none;" d="M310 130L311 131L310 130z"/>
<path style="fill:#acadb3; stroke:none;" d="M311.667 130.333L312.333 130.667L311.667 130.333z"/>
<path style="fill:#0e6eb4; stroke:none;" d="M313 130L314 131L313 130z"/>
<path style="fill:#acadb3; stroke:none;" d="M152.333 131.667L152.667 132.333L152.333 131.667M158.333 131.667L158.667 132.333L158.333 131.667z"/>
<path style="fill:#0e6eb4; stroke:none;" d="M160 131L161 132L160 131z"/>
<path style="fill:#acadb3; stroke:none;" d="M163.333 131.667L163.667 132.333L163.333 131.667M192 131L193 132L192 131M194 131L195 132L194 131M247.333 131.667L247.667 132.333L247.333 131.667M303.667 131.333L304.333 131.667L303.667 131.333M308.667 131.333L309.333 131.667L308.667 131.333M314.667 131.333L315.333 131.667L314.667 131.333M317.667 131.333L318.333 131.667L317.667 131.333M154.333 132.667L154.667 133.333L154.333 132.667M161 132L159 135L162 136L163 135L161 132M245 132L246 133L245 132M300.667 132.333L301.333 132.667L300.667 132.333M306 132L307 133L306 132z"/>
<path style="fill:#1e608f; stroke:none;" d="M331 132C331 153.659 328.826 171.95 324 193L325 193C331.822 177.609 338.216 148.073 331 132z"/>
<path style="fill:#acadb3; stroke:none;" d="M50 133L50 140L51 140L50 133z"/>
<path style="fill:#1e608f; stroke:none;" d="M51 133L51 141L52 141L51 133z"/>
<path style="fill:#acadb3; stroke:none;" d="M150 133L150 137L151 137L150 133z"/>
<path style="fill:#0e6eb4; stroke:none;" d="M152 133L153 134L152 133z"/>
<path style="fill:#acadb3; stroke:none;" d="M156 133L157 134L156 133M164 133L165 134L164 133M167.333 133.667L167.667 134.333L167.333 133.667M191 133L192 134L191 133M193.333 133.667L193.667 134.333L193.333 133.667M298.667 133.333L299.333 133.667L298.667 133.333M303 133L304 134L303 133M330 133L330 140L331 140L330 133z"/>
<path style="fill:#0e6eb4; stroke:none;" d="M345.333 133.667L345.667 134.333L345.333 133.667M153 134L154 135L153 134z"/>
<path style="fill:#fbfcfd; stroke:none;" d="M161 134L162 135L161 134z"/>
<path style="fill:#acadb3; stroke:none;" d="M165 134L166 135L165 134M190.333 134.667L190.667 135.333L190.333 134.667M246 134L247 135L246 134M248 134L249 135L248 134M296 134L297 135L296 134M301 134L302 135L301 134M145.333 135.667L145.667 136.333L145.333 135.667M148 135L149 136L148 135z"/>
<path style="fill:#0e6eb4; stroke:none;" d="M151 135L152 136L151 135z"/>
<path style="fill:#acadb3; stroke:none;" d="M153 135L152 138L153 135M163 135L164 136L163 135M166 135L167 136L166 135M192 135L193 136L192 135M293.667 135.333L294.333 135.667L293.667 135.333M298.667 135.333L299.333 135.667L298.667 135.333z"/>
<path style="fill:#0e6eb4; stroke:none;" d="M152 136L153 137L152 136z"/>
<path style="fill:#acadb3; stroke:none;" d="M164 136L165 137L164 136M167 136L168 137L167 136M247.333 136.667L247.667 137.333L247.333 136.667M249 136L250 137L249 136M291 136L292 137L291 136M296 136L297 137L296 136z"/>
<path style="fill:#0e6eb4; stroke:none;" d="M150 137L151 138L150 137z"/>
<path style="fill:#acadb3; stroke:none;" d="M165 137L166 138L165 137M169 137L169 140L170 140L169 137M189 137L190 138L189 137M191.333 137.667L191.667 138.333L191.333 137.667z"/>
<path style="fill:#0e6eb4; stroke:none;" d="M249 137L250 138L249 137z"/>
<path style="fill:#acadb3; stroke:none;" d="M289 137L290 138L289 137M293.667 137.333L294.333 137.667L293.667 137.333z"/>
<path style="fill:#1e608f; stroke:none;" d="M64 138L64 143L65 143L64 138z"/>
<path style="fill:#acadb3; stroke:none;" d="M147 138L148 139L147 138M149.333 138.667L149.667 139.333L149.333 138.667M155.333 138.667L155.667 139.333L155.333 138.667M166 138L168 141L166 138z"/>
<path style="fill:#0e6eb4; stroke:none;" d="M168 138L169 139L168 138z"/>
<path style="fill:#acadb3; stroke:none;" d="M250.333 138.667L250.667 139.333L250.333 138.667M286.667 138.333L287.333 138.667L286.667 138.333M291.667 138.333L292.333 138.667L291.667 138.333M151.333 139.667L151.667 140.333L151.333 139.667M174 139L175 140L174 139M188 139L189 140L188 139M190.333 139.667L190.667 140.333L190.333 139.667M248 139L249 140L248 139M284 139L285 140L284 139M289 139L290 140L289 139M346 139L346 158L347 158L346 139M148.333 140.667L148.667 141.333L148.333 140.667M164 140L165 141L164 140M170 140L171 141L170 140M175.333 140.667L175.667 141.333L175.333 140.667M281.667 140.333L282.333 140.667L281.667 140.333M286.667 140.333L287.333 140.667L286.667 140.333M65 141L65 157L66 157L65 141M150.333 141.667L150.667 142.333L150.333 141.667M168 141L169 142L168 141M171 141L172 142L171 141M187 141L188 142L187 141M189 141L190 142L189 141M249 141L250 142L249 141M251 141L252 142L251 141M279 141L280 142L279 141M284 141L285 142L284 141z"/>
<path style="fill:#1e608f; stroke:none;" d="M50 142L50 155L51 155L50 142z"/>
<path style="fill:#acadb3; stroke:none;" d="M147.333 142.667L147.667 143.333L147.333 142.667M161 142L162 143L161 142M169 142L170 143L169 142M172 142L173 143L172 142M174 142L175 143L174 142M186.333 142.667L186.667 143.333L186.333 142.667M276.667 142.333L277.333 142.667L276.667 142.333M281.667 142.333L282.333 142.667L281.667 142.333M144 143L145 144L144 143M149.333 143.667L149.667 144.333L149.333 143.667M170 143L171 144L170 143M173 143L174 144L173 143M188 143L189 144L188 143M250.333 143.667L250.667 144.333L250.333 143.667M274.667 143.333L275.333 143.667L274.667 143.333M279 143L280 144L279 143z"/>
<path style="fill:#1e608f; stroke:none;" d="M64 144L66 173L67 173L64 144z"/>
<path style="fill:#acadb3; stroke:none;" d="M88 144L89 145L88 144M146.333 144.667L146.667 145.333L146.333 144.667M171 144L171 146L173 146L171 144M174 144L175 147L176 147L174 144M177 144L179 146L177 144M180 144L181 145L180 144M272 144L273 145L272 144M277 144L278 145L277 144z"/>
<path style="fill:#0e6eb4; stroke:none;" d="M148 145L149 146L148 145M174 145L175 146L174 145z"/>
<path style="fill:#acadb3; stroke:none;" d="M185 145L186 146L185 145M187 145L188 146L187 145M253.333 145.667L253.667 146.333L253.333 145.667M269.667 145.333L270.333 145.667L269.667 145.333M274.667 145.333L275.333 145.667L274.667 145.333M148 146L149 147L148 146M181 146L182 147L181 146M251 146L252 147L251 146M267 146L268 147L267 146M272.667 146.333L273.333 146.667L272.667 146.333M90 147L90 152L91 152L90 147M94 147L94 150L95 150L94 147M145 147L146 148L145 147M173 147L174 148L173 147M176 147L177 148L176 147M184 147L185 148L184 147M186 147L187 148L186 147M265 147L266 148L265 147M270 147L271 148L270 147z"/>
<path style="fill:#0e6eb4; stroke:none;" d="M145 148L146 149L145 148z"/>
<path style="fill:#acadb3; stroke:none;" d="M147 148L148 149L147 148M174 148L175 149L174 148M177 148L178 149L177 148M178 149L178 150L184 149L178 149M252 148L253 149L252 148M254 148L255 149L254 148M262.667 148.333L263.333 148.667L262.667 148.333M267 148L268 149L267 148M136 149L137 150L136 149M144 149L145 150L144 149M149 149L150 150L149 149M175 149L176 150L175 149z"/>
<path style="fill:#0e6eb4; stroke:none;" d="M180 149L181 150L180 149M185 149C172.774 155.437 188.895 158.928 185 149z"/>
<path style="fill:#acadb3; stroke:none;" d="M260 149L261 150L260 149M264 149L264 150L267 150L264 149z"/>
<path style="fill:#0e6eb4; stroke:none;" d="M144 150L145 151L144 150z"/>
<path style="fill:#acadb3; stroke:none;" d="M146.333 150.667L146.667 151.333L146.333 150.667M176 150L177 151L176 150z"/>
<path style="fill:#0e6eb4; stroke:none;" d="M179 150L180 151L179 150z"/>
<path style="fill:#acadb3; stroke:none;" d="M186 150L187 151L186 150M253 150L254 151L253 150M255 150L256 151L255 150M257.667 150.333L258.333 150.667L257.667 150.333M262.667 150.333L263.333 150.667L262.667 150.333M143.333 151.667L143.667 152.333L143.333 151.667M174 151L175 152L174 151M177 151L177 154L178 154L177 151M256 151L257 152L256 151M260 151L261 152L260 151M93.6667 152.333L94.3333 152.667L93.6667 152.333M137 152L136 157L137 157L137 152M141 152L142 153L141 152M145.333 152.667L145.667 153.333L145.333 152.667M148 152L149 153L148 152z"/>
<path style="fill:#0e6eb4; stroke:none;" d="M178 152L179 153L178 152z"/>
<path style="fill:#acadb3; stroke:none;" d="M187.333 152.667L187.667 153.333L187.333 152.667M254 152L255 153L254 152M258 152L259 153L258 152M91 153L92 154L91 153M142.333 153.667L142.667 154.333L142.333 153.667M255.667 153.333L256.333 153.667L255.667 153.333M140 154L141 155L140 154M144.333 154.667L144.667 155.333L144.333 154.667z"/>
<path style="fill:#0e6eb4; stroke:none;" d="M177 154L178 155L177 154z"/>
<path style="fill:#acadb3; stroke:none;" d="M177.333 155.667L177.667 156.333L177.333 155.667M187.333 155.667L187.667 156.333L187.333 155.667M141 156L142 157L141 156z"/>
<path style="fill:#0e6eb4; stroke:none;" d="M143 156L144 157L143 156z"/>
<path style="fill:#acadb3; stroke:none;" d="M330 156L330 164L331 164L330 156M50 157L50 164L51 164L50 157z"/>
<path style="fill:#1e608f; stroke:none;" d="M51 157L53 178L54 178L51 157z"/>
<path style="fill:#0e6eb4; stroke:none;" d="M65 157L65 160L66 160L65 157z"/>
<path style="fill:#acadb3; stroke:none;" d="M95.3333 157.667L95.6667 158.333L95.3333 157.667M143 157L142 160L143 157M145 157L147 160L145 157M148 157L149 158L148 157M178 157L179 158L178 157M186 157L187 158L186 157M137 158L136 163L137 163L137 158M140 158L141 159L140 158z"/>
<path style="fill:#0e6eb4; stroke:none;" d="M142 158L143 159L142 158z"/>
<path style="fill:#acadb3; stroke:none;" d="M179 158L180 159L179 158z"/>
<path style="fill:#0e6eb4; stroke:none;" d="M180 158L181 159L180 158z"/>
<path style="fill:#acadb3; stroke:none;" d="M185 158L186 159L185 158M93 159L94 160L93 159M149 159L150 160L149 159M177 159L178 160L177 159M183 159L184 160L183 159M98.6667 160.333L99.3333 160.667L98.6667 160.333M102 160L103 161L102 160M139.333 160.667L139.667 161.333L139.333 160.667M94.3333 161.667L94.6667 162.333L94.3333 161.667M96 161L97 164C92.5145 164.109 89.6977 164.562 88 169L89 169L102 164L102 171L101 171L100 168L99 168C100.715 173.022 106.077 174.434 111 174C111.511 177.765 117.546 179.074 121 180L121 179L103 172L101 161L100 161L100 164L96 161M141.333 161.667L141.667 162.333L141.333 161.667M66 162L66 167L67 167L66 162M103.333 162.667L103.667 163.333L103.333 162.667M138.333 162.667L138.667 163.333L138.333 162.667z"/>
<path style="fill:#0e6eb4; stroke:none;" d="M345 162L346 163L345 162z"/>
<path style="fill:#acadb3; stroke:none;" d="M140.333 163.667L140.667 164.333L140.333 163.667M345 163L345 168L346 168L345 163z"/>
<path style="fill:#fbfcfd; stroke:none;" d="M97 164L99 166L99 164L97 164M100 164L101 171L102 171L102 164L100 164z"/>
<path style="fill:#acadb3; stroke:none;" d="M137.333 164.667L137.667 165.333L137.333 164.667z"/>
<path style="fill:#0e6eb4; stroke:none;" d="M330 164L331 165L330 164z"/>
<path style="fill:#1e608f; stroke:none;" d="M89 169L95 166L98 168C95.1181 164.008 91.2553 164.91 89 169z"/>
<path style="fill:#acadb3; stroke:none;" d="M139.333 165.667L139.667 166.333L139.333 165.667z"/>
<path style="fill:#0e6eb4; stroke:none;" d="M51.3333 166.667L51.6667 167.333L51.3333 166.667M88 171L90 170L89 173L94 174L93 171L95 173L99 172L99 167L95 166L88 171M97 166L98 167L97 166z"/>
<path style="fill:#acadb3; stroke:none;" d="M136 166L134 172L135 172L134 169C136.269 169.013 136.858 168.182 136 166z"/>
<path style="fill:#0e6eb4; stroke:none;" d="M66 167L67 168L66 167M138 167L139 168L138 167z"/>
<path style="fill:#acadb3; stroke:none;" d="M51 168L51 171L52 171L51 168M111 168L112 169L111 168M128 168L129 169L128 168M130 168L130 171L131 171L130 168z"/>
<path style="fill:#0e6eb4; stroke:none;" d="M136 168L137 169L136 168z"/>
<path style="fill:#acadb3; stroke:none;" d="M138 168L137 172L138 172L138 168M329 168L329 171L330 171L329 168z"/>
<path style="fill:#1e608f; stroke:none;" d="M97 169L98 170L97 169z"/>
<path style="fill:#acadb3; stroke:none;" d="M104.333 169.667L104.667 170.333L104.333 169.667M106.667 169.333L107.333 169.667L106.667 169.333z"/>
<path style="fill:#fbfcfd; stroke:none;" d="M134.333 169.667L134.667 170.333L134.333 169.667z"/>
<path style="fill:#0e6eb4; stroke:none;" d="M137 169L138 170L137 169z"/>
<path style="fill:#acadb3; stroke:none;" d="M142.333 169.667L142.667 170.333L142.333 169.667M67 170L67 173L68 173L67 170z"/>
<path style="fill:#1e608f; stroke:none;" d="M89.3333 170.667L89.6667 171.333L89.3333 170.667z"/>
<path style="fill:#acadb3; stroke:none;" d="M109 170L109 171L112 172L109 170z"/>
<path style="fill:#0e6eb4; stroke:none;" d="M344 170L345 171L344 170z"/>
<path style="fill:#acadb3; stroke:none;" d="M88.3333 171.667L88.6667 172.333L88.3333 171.667z"/>
<path style="fill:#1e608f; stroke:none;" d="M93 171L94 174L90 172C92.2856 175.193 94.6823 174.523 98 173L98 172L93 171M99 171C103.153 177.087 117.063 180.653 124 183C118.631 177.126 106.62 173.194 99 171z"/>
<path style="fill:#acadb3; stroke:none;" d="M106.667 171.333L107.333 171.667L106.667 171.333z"/>
<path style="fill:#0e6eb4; stroke:none;" d="M329 171L330 172L329 171z"/>
<path style="fill:#acadb3; stroke:none;" d="M344 171L344 175L345 175L344 171M98 172L99 173L98 172M128 172L130 176L128 172M131.333 172.667L131.667 173.333L131.333 172.667z"/>
<path style="fill:#0e6eb4; stroke:none;" d="M134 172L135 173L134 172z"/>
<path style="fill:#acadb3; stroke:none;" d="M136 172L137 173L136 172z"/>
<path style="fill:#1e608f; stroke:none;" d="M334 172L335 173L334 172z"/>
<path style="fill:#0e6eb4; stroke:none;" d="M52 173L53 174L52 173z"/>
<path style="fill:#acadb3; stroke:none;" d="M89 173L90 174L89 173M97 173L98 174L97 173M100 173L101 174L100 173M133.333 173.667L133.667 174.333L133.333 173.667M137 173L139 175L139 173L137 173M143 173L144 174L143 173M328 173L328 176L329 176L328 173M52 174L52 178L53 178L52 174z"/>
<path style="fill:#1e608f; stroke:none;" d="M67 174C67.0013 185.621 73.5417 210.343 84 217L78 209C78.0886 199.883 71.0656 182.391 67 174z"/>
<path style="fill:#acadb3; stroke:none;" d="M91 174L92 175L91 174z"/>
<path style="fill:#0e6eb4; stroke:none;" d="M95 174L96 175L95 174z"/>
<path style="fill:#acadb3; stroke:none;" d="M96 174L97 175L96 174M103 174L104 175L103 174z"/>
<path style="fill:#0e6eb4; stroke:none;" d="M107 174L108 175L107 174z"/>
<path style="fill:#fbfcfd; stroke:none;" d="M109.667 174.333L110.333 174.667L109.667 174.333z"/>
<path style="fill:#acadb3; stroke:none;" d="M135 174C135.408 176.581 136.191 179 133 179L132 188L135 180L136 180L138 184L135 174M94 175L95 176L94 175M104.667 175.333L105.333 175.667L104.667 175.333M132 175L122 180L122 181C124.94 180.362 132.569 178.455 132 175M68.3333 176.667L68.6667 177.333L68.3333 176.667M106.667 176.333L107.333 176.667L106.667 176.333z"/>
<path style="fill:#0e6eb4; stroke:none;" d="M108 176L109 177L108 176z"/>
<path style="fill:#acadb3; stroke:none;" d="M117.667 176.333L118.333 176.667L117.667 176.333M120 176L120 177L124 177L124 176L120 176z"/>
<path style="fill:#fbfcfd; stroke:none;" d="M135 176L134 180L135 180L135 176z"/>
<path style="fill:#acadb3; stroke:none;" d="M109 177L109 178L113 179L113 178L109 177z"/>
<path style="fill:#0e6eb4; stroke:none;" d="M111 177L112 178L111 177M114 177L115 178L114 177M132 177L133 178L132 177z"/>
<path style="fill:#acadb3; stroke:none;" d="M134 177L135 178L134 177z"/>
<path style="fill:#1e608f; stroke:none;" d="M342 177L342 181L343 181L342 177z"/>
<path style="fill:#acadb3; stroke:none;" d="M343 177L343 180L344 180L343 177z"/>
<path style="fill:#1e608f; stroke:none;" d="M54 178C54.0932 182.373 54.3011 187.222 58 190L54 178z"/>
<path style="fill:#0e6eb4; stroke:none;" d="M68 178L69 179L68 178z"/>
<path style="fill:#acadb3; stroke:none;" d="M123 178L124 179L123 178z"/>
<path style="fill:#1e608f; stroke:none;" d="M126 179L126 180L131 180L131 178L126 179z"/>
<path style="fill:#0e6eb4; stroke:none;" d="M131 178L125 180L126 185C131.737 186.528 133.995 183.036 131 178M133 178L134 179L133 178z"/>
<path style="fill:#acadb3; stroke:none;" d="M327.333 178.667L327.667 179.333L327.333 178.667M53 179L53 182L54 182L53 179M113.667 179.333L114.333 179.667L113.667 179.333M69.3333 180.667L69.6667 181.333L69.3333 180.667M112 180L113 181L112 180M116.667 180.333L117.333 180.667L116.667 180.333z"/>
<path style="fill:#0e6eb4; stroke:none;" d="M133 180L134 181L133 180M327 180L328 181L327 180z"/>
<path style="fill:#acadb3; stroke:none;" d="M114 181L115 182L114 181M118.667 181.333L119.333 181.667L118.667 181.333z"/>
<path style="fill:#0e6eb4; stroke:none;" d="M123 181L124 185L125 185L123 181z"/>
<path style="fill:#1e608f; stroke:none;" d="M128 181L129 182L128 181M341 181L339 192L340 192L341 181z"/>
<path style="fill:#acadb3; stroke:none;" d="M117 182L118 183L117 182M120.667 182.333L121.333 182.667L120.667 182.333z"/>
<path style="fill:#0e6eb4; stroke:none;" d="M122 182L123 183L122 182z"/>
<path style="fill:#acadb3; stroke:none;" d="M326.333 182.667L326.667 183.333L326.333 182.667M342.333 182.667L342.667 183.333L342.333 182.667z"/>
<path style="fill:#0e6eb4; stroke:none;" d="M68 183L69 184L68 183z"/>
<path style="fill:#acadb3; stroke:none;" d="M119 183L120 184L119 183M123.333 183.667L123.667 184.333L123.333 183.667M54.3333 184.667L54.6667 185.333L54.3333 184.667M70.3333 184.667L70.6667 185.333L70.3333 184.667M124 185L125 186L124 185z"/>
<path style="fill:#0e6eb4; stroke:none;" d="M133 185L134 186L133 185z"/>
<path style="fill:#acadb3; stroke:none;" d="M141 185L141 186L144 186L141 185z"/>
<path style="fill:#0e6eb4; stroke:none;" d="M341 185L342 186L341 185M70 186L71 187L70 186z"/>
<path style="fill:#acadb3; stroke:none;" d="M125 186L126 187L125 186z"/>
<path style="fill:#0e6eb4; stroke:none;" d="M132 186L133 187L132 186z"/>
<path style="fill:#acadb3; stroke:none;" d="M135 186L136 187L135 186M325 186L326 187L325 186M341.333 186.667L341.667 187.333L341.333 186.667z"/>
<path style="fill:#0e6eb4; stroke:none;" d="M55 187L56 188L55 187z"/>
<path style="fill:#acadb3; stroke:none;" d="M71.3333 187.667L71.6667 188.333L71.3333 187.667M126 187L127 188L126 187z"/>
<path style="fill:#0e6eb4; stroke:none;" d="M131 187L132 188L131 187M325 187L326 188L325 187z"/>
<path style="fill:#acadb3; stroke:none;" d="M55.3333 188.667L55.6667 189.333L55.3333 188.667M127 188L127 189L131 189L127 188z"/>
<path style="fill:#0e6eb4; stroke:none;" d="M71 189L72 190L71 189z"/>
<path style="fill:#acadb3; stroke:none;" d="M324.333 189.667L324.667 190.333L324.333 189.667M340.333 189.667L340.667 190.333L340.333 189.667M72.3333 190.667L72.6667 191.333L72.3333 190.667M56 192L57 193L56 192z"/>
<path style="fill:#1e608f; stroke:none;" d="M57 192L60 202L61 202L57 192z"/>
<path style="fill:#acadb3; stroke:none;" d="M323.333 192.667L323.667 193.333L323.333 192.667z"/>
<path style="fill:#1e608f; stroke:none;" d="M337 192L338 195L339 195L339 192L337 192z"/>
<path style="fill:#acadb3; stroke:none;" d="M73.3333 193.667L73.6667 194.333L73.3333 193.667M339 193L340 194L339 193M57.3333 194.667L57.6667 195.333L57.3333 194.667M322 195L323 196L322 195z"/>
<path style="fill:#1e608f; stroke:none;" d="M323 195L324 196L323 195M337 195L330 214L331 214C333.818 209.049 338.696 200.737 337 195z"/>
<path style="fill:#acadb3; stroke:none;" d="M74.3333 196.667L74.6667 197.333L74.3333 196.667M338.333 196.667L338.667 197.333L338.333 196.667M58.3333 197.667L58.6667 198.333L58.3333 197.667z"/>
<path style="fill:#1e608f; stroke:none;" d="M322 197L322 201L301.854 232L292 246L288 246L277 257L287 251L293 246L308 226L310 227C312.938 218.576 325.265 206.415 322 197z"/>
<path style="fill:#acadb3; stroke:none;" d="M75.3333 198.667L75.6667 199.333L75.3333 198.667M321 198L322 199L321 198z"/>
<path style="fill:#0e6eb4; stroke:none;" d="M337 198L338 199L337 198z"/>
<path style="fill:#acadb3; stroke:none;" d="M337 199L338 200L337 199M59.3333 200.667L59.6667 201.333L59.3333 200.667M320 200L321 201L320 200z"/>
<path style="fill:#0e6eb4; stroke:none;" d="M321 200L322 201L321 200z"/>
<path style="fill:#acadb3; stroke:none;" d="M76 201L77 202L76 201M336.333 201.667L336.667 202.333L336.333 201.667z"/>
<path style="fill:#1e608f; stroke:none;" d="M61 202L63 209L64 209L61 202z"/>
<path style="fill:#0e6eb4; stroke:none;" d="M76 202L77 203L76 202z"/>
<path style="fill:#acadb3; stroke:none;" d="M319.333 202.667L319.667 203.333L319.333 202.667M60 203L61 204L60 203M77 203L78 204L77 203z"/>
<path style="fill:#0e6eb4; stroke:none;" d="M77 204L78 205L77 204z"/>
<path style="fill:#acadb3; stroke:none;" d="M318.333 204.667L318.667 205.333L318.333 204.667M335 204L336 205L335 204M61.3333 205.667L61.6667 206.333L61.3333 205.667M78.3333 205.667L78.6667 206.333L78.3333 205.667M317.333 206.667L317.667 207.333L317.333 206.667M334 206L335 207L334 206z"/>
<path style="fill:#0e6eb4; stroke:none;" d="M62 207L63 208L62 207z"/>
<path style="fill:#acadb3; stroke:none;" d="M62 208L63 209L62 208z"/>
<path style="fill:#1e608f; stroke:none;" d="M68 208L70 210L68 208z"/>
<path style="fill:#0e6eb4; stroke:none;" d="M78.6667 208.333L79.3333 208.667L78.6667 208.333z"/>
<path style="fill:#acadb3; stroke:none;" d="M316.333 208.667L316.667 209.333L316.333 208.667M80 209L81 210L80 209M333 209L334 210L333 209M63 210L64 211L63 210z"/>
<path style="fill:#1e608f; stroke:none;" d="M64 210L67 217L68 217L64 210M66 210L68 212L66 210z"/>
<path style="fill:#0e6eb4; stroke:none;" d="M80 210L81 211L80 210z"/>
<path style="fill:#acadb3; stroke:none;" d="M315 210L316 211L315 210M81 211L82 212L81 211z"/>
<path style="fill:#0e6eb4; stroke:none;" d="M315 211L316 212L315 211z"/>
<path style="fill:#acadb3; stroke:none;" d="M332 211L333 212L332 211M64 212L65 213L64 212M314 212L315 213L314 212M82 213L83 214L82 213M331 213L332 214L331 213M65 214L66 215L65 214z"/>
<path style="fill:#0e6eb4; stroke:none;" d="M82 214L83 215L82 214z"/>
<path style="fill:#acadb3; stroke:none;" d="M313 214L314 215L313 214z"/>
<path style="fill:#1e608f; stroke:none;" d="M329 214L326 222L327 222L329 214z"/>
<path style="fill:#acadb3; stroke:none;" d="M83 215L84 216L83 215M330 215L331 216L330 215M66.3333 216.667L66.6667 217.333L66.3333 216.667M84 216L85 217L84 216M312 216L313 217L312 216z"/>
<path style="fill:#1e608f; stroke:none;" d="M326 216L327 217L326 216M68.3333 217.667L68.6667 218.333L68.3333 217.667z"/>
<path style="fill:#acadb3; stroke:none;" d="M311 217L312 218L311 217M329 217L330 218L329 217M67 218L68 219L67 218z"/>
<path style="fill:#1e608f; stroke:none;" d="M84 218L83 219C90.8081 229.505 98.2904 243.334 110 250L84 218z"/>
<path style="fill:#acadb3; stroke:none;" d="M85 218L86 219L85 218z"/>
<path style="fill:#0e6eb4; stroke:none;" d="M311 218L312 219L311 218z"/>
<path style="fill:#1e608f; stroke:none;" d="M325 218L326 219L325 218M69 219L72 226L73 226L69 219z"/>
<path style="fill:#0e6eb4; stroke:none;" d="M85 219L86 220L85 219z"/>
<path style="fill:#acadb3; stroke:none;" d="M310 219L311 220L310 219M328 219L329 220L328 219M68 220L69 221L68 220M86 220L87 221L86 220z"/>
<path style="fill:#1e608f; stroke:none;" d="M82 221L83 222L82 221z"/>
<path style="fill:#acadb3; stroke:none;" d="M87 221L88 222L87 221z"/>
<path style="fill:#0e6eb4; stroke:none;" d="M309 221L310 222L309 221z"/>
<path style="fill:#acadb3; stroke:none;" d="M327 221L328 222L327 221M69 222L70 225L71 225L69 222z"/>
<path style="fill:#0e6eb4; stroke:none;" d="M70 222L71 223L70 222M87 222L88 223L87 222z"/>
<path style="fill:#acadb3; stroke:none;" d="M308 222L309 223L308 222z"/>
<path style="fill:#1e608f; stroke:none;" d="M325 222L323 227L324 227L325 222z"/>
<path style="fill:#acadb3; stroke:none;" d="M88 223L89 224L88 223M326 223L327 224L326 223z"/>
<path style="fill:#1e608f; stroke:none;" d="M80.3333 224.667L80.6667 225.333L80.3333 224.667z"/>
<path style="fill:#acadb3; stroke:none;" d="M89 224L90 225L89 224z"/>
<path style="fill:#0e6eb4; stroke:none;" d="M309 224L310 225L309 224z"/>
<path style="fill:#acadb3; stroke:none;" d="M325 224L326 225L325 224M71 225L72 226L71 225M306 225L307 226L306 225z"/>
<path style="fill:#1e608f; stroke:none;" d="M311.333 225.667L311.667 226.333L311.333 225.667M73 226L76 230L73 226z"/>
<path style="fill:#acadb3; stroke:none;" d="M90 226L91 227L90 226M305 226L306 227L305 226M324 226L325 227L324 226M72 227L73 228L72 227M91 227L92 228L91 227z"/>
<path style="fill:#0e6eb4; stroke:none;" d="M305 227L306 228L305 227z"/>
<path style="fill:#1e608f; stroke:none;" d="M322 227L321 230L322 227z"/>
<path style="fill:#acadb3; stroke:none;" d="M73 228L74 229L73 228M92 228L93 229L92 228M304 228L305 229L304 228z"/>
<path style="fill:#1e608f; stroke:none;" d="M310 228L311 229L310 228z"/>
<path style="fill:#acadb3; stroke:none;" d="M93 229L94 230L93 229M303 229L302 232L303 232L303 229M322 229L323 230L322 229M74 230L75 231L74 230z"/>
<path style="fill:#1e608f; stroke:none;" d="M76.3333 230.667L76.6667 231.333L76.3333 230.667z"/>
<path style="fill:#0e6eb4; stroke:none;" d="M93 230L94 231L93 230M303 230L304 231L303 230z"/>
<path style="fill:#1e608f; stroke:none;" d="M320.333 230.667L320.667 231.333L320.333 230.667z"/>
<path style="fill:#acadb3; stroke:none;" d="M75 231L76 232L75 231M94 231L95 232L94 231z"/>
<path style="fill:#1e608f; stroke:none;" d="M77 232L83 240L77 232z"/>
<path style="fill:#acadb3; stroke:none;" d="M95 232L96 233L95 232M301 232L302 233L301 232z"/>
<path style="fill:#1e608f; stroke:none;" d="M317 232L318 233L317 232z"/>
<path style="fill:#acadb3; stroke:none;" d="M320 232L321 233L320 232M76 233L77 234L76 233M96 233L97 234L96 233M300 233L301 234L300 233z"/>
<path style="fill:#1e608f; stroke:none;" d="M313 233L314 234L313 233z"/>
<path style="fill:#acadb3; stroke:none;" d="M77 234L78 235L77 234z"/>
<path style="fill:#0e6eb4; stroke:none;" d="M96 234L97 235L96 234z"/>
<path style="fill:#acadb3; stroke:none;" d="M299 234L300 235L299 234M319 234L320 235L319 234M78 235L79 236L78 235z"/>
<path style="fill:#0e6eb4; stroke:none;" d="M97 235L98 236L97 235z"/>
<path style="fill:#acadb3; stroke:none;" d="M298 235L299 236L298 235z"/>
<path style="fill:#1e608f; stroke:none;" d="M315 238L318 235L315 238z"/>
<path style="fill:#acadb3; stroke:none;" d="M318 235L319 236L318 235z"/>
<path style="fill:#0e6eb4; stroke:none;" d="M98 236L99 237L98 236z"/>
<path style="fill:#acadb3; stroke:none;" d="M297 236L294 241L295 241L297 236z"/>
<path style="fill:#1e608f; stroke:none;" d="M302 236L303 237L302 236z"/>
<path style="fill:#acadb3; stroke:none;" d="M317 236L318 237L317 236M79 237L80 238L79 237M99 237L100 238L99 237z"/>
<path style="fill:#0e6eb4; stroke:none;" d="M297 237L298 238L297 237z"/>
<path style="fill:#acadb3; stroke:none;" d="M80 238L81 239L80 238M100 238L101 239L100 238z"/>
<path style="fill:#0e6eb4; stroke:none;" d="M296 238L297 239L296 238z"/>
<path style="fill:#1e608f; stroke:none;" d="M300 238L301 239L300 238M313 238L311 241C313.483 240.762 314.303 240.3 313 238z"/>
<path style="fill:#acadb3; stroke:none;" d="M316 238L317 239L316 238z"/>
<path style="fill:#1e608f; stroke:none;" d="M90 239L91 240L90 239z"/>
<path style="fill:#acadb3; stroke:none;" d="M101 239L102 240L101 239z"/>
<path style="fill:#0e6eb4; stroke:none;" d="M295 239L296 240L295 239z"/>
<path style="fill:#acadb3; stroke:none;" d="M315 239L316 240L315 239z"/>
<path style="fill:#1e608f; stroke:none;" d="M83.3333 240.667L83.6667 241.333L83.3333 240.667z"/>
<path style="fill:#acadb3; stroke:none;" d="M102 240L103 241L102 240M314 240L315 241L314 240M82 241L83 242L82 241z"/>
<path style="fill:#1e608f; stroke:none;" d="M86.3333 241.667L86.6667 242.333L86.3333 241.667z"/>
<path style="fill:#acadb3; stroke:none;" d="M103 241L104 242L103 241z"/>
<path style="fill:#0e6eb4; stroke:none;" d="M293 241L294 242L293 241z"/>
<path style="fill:#1e608f; stroke:none;" d="M310 241L311 242L310 241z"/>
<path style="fill:#acadb3; stroke:none;" d="M313.333 241.667L313.667 242.333L313.333 241.667M83 242L84 243L83 242M104 242L105 243L104 242z"/>
<path style="fill:#0e6eb4; stroke:none;" d="M292 242L293 243L292 242z"/>
<path style="fill:#1e608f; stroke:none;" d="M311 242L303 252L311 242z"/>
<path style="fill:#acadb3; stroke:none;" d="M84 243L86 245L84 243z"/>
<path style="fill:#1e608f; stroke:none;" d="M85 243L86 244L85 243z"/>
<path style="fill:#acadb3; stroke:none;" d="M105 243L106 244L105 243z"/>
<path style="fill:#0e6eb4; stroke:none;" d="M291 243L292 244L291 243z"/>
<path style="fill:#1e608f; stroke:none;" d="M308 243L309 244L308 243z"/>
<path style="fill:#acadb3; stroke:none;" d="M312 243L313 244L312 243z"/>
<path style="fill:#1e608f; stroke:none;" d="M86 244L96 254L86 244z"/>
<path style="fill:#acadb3; stroke:none;" d="M106 244L107 245L106 244z"/>
<path style="fill:#0e6eb4; stroke:none;" d="M290 244L289 247L292 245L290 244z"/>
<path style="fill:#acadb3; stroke:none;" d="M311 244L312 245L311 244z"/>
<path style="fill:#0e6eb4; stroke:none;" d="M86 245L88 247L86 245z"/>
<path style="fill:#acadb3; stroke:none;" d="M107 245L108 246L107 245M288 245L289 246L288 245M310 245L311 246L310 245M86 246L87 247L86 246M108 246L109 247L108 246M287 246L286 248L287 246M309 246L310 247L309 246M87 247L88 248L87 247M109 247L110 248L109 247z"/>
<path style="fill:#0e6eb4; stroke:none;" d="M287 247L288 248L287 247z"/>
<path style="fill:#acadb3; stroke:none;" d="M308 247L307 249L309 249L308 247M88 248L89 249L88 248M110.667 248.333L111.333 248.667L110.667 248.333M285 248L286 249L285 248M89 249L90 250L89 249M112 249L115 252L112 249M284 249L285 250L284 249M306 249L304 252L306 249M90 250L91 251L90 250z"/>
<path style="fill:#1e608f; stroke:none;" d="M111 250L121 260L123 259L126 261L126 260L111 250z"/>
<path style="fill:#0e6eb4; stroke:none;" d="M283 250L284 251L283 250z"/>
<path style="fill:#acadb3; stroke:none;" d="M91 251L92 252L91 251z"/>
<path style="fill:#0e6eb4; stroke:none;" d="M282 251L283 252L282 251z"/>
<path style="fill:#acadb3; stroke:none;" d="M92 252L93 253L92 252z"/>
<path style="fill:#0e6eb4; stroke:none;" d="M115 252L116 253L115 252z"/>
<path style="fill:#acadb3; stroke:none;" d="M280 252L281 253L280 252z"/>
<path style="fill:#1e608f; stroke:none;" d="M300 255L303 252L300 255z"/>
<path style="fill:#acadb3; stroke:none;" d="M93 253L94 254L93 253z"/>
<path style="fill:#0e6eb4; stroke:none;" d="M116 253L117 254L116 253z"/>
<path style="fill:#acadb3; stroke:none;" d="M117 253L118 254L117 253M279 253L280 254L279 253z"/>
<path style="fill:#0e6eb4; stroke:none;" d="M281 253L282 254L281 253z"/>
<path style="fill:#acadb3; stroke:none;" d="M301 256L304 253L301 256M94 254L95 255L94 254z"/>
<path style="fill:#1e608f; stroke:none;" d="M96 254L100 258L96 254M113 254L114 255L113 254z"/>
<path style="fill:#acadb3; stroke:none;" d="M118 254L119 255L118 254M278 254L279 255L278 254z"/>
<path style="fill:#1e608f; stroke:none;" d="M286 254L287 255L286 254z"/>
<path style="fill:#acadb3; stroke:none;" d="M95 255L96 256L95 255M119 255L120 256L119 255M276 255L277 256L276 255z"/>
<path style="fill:#0e6eb4; stroke:none;" d="M277 255L278 256L277 255z"/>
<path style="fill:#1e608f; stroke:none;" d="M295 260L300 255L295 260z"/>
<path style="fill:#acadb3; stroke:none;" d="M96 256L98 258L96 256z"/>
<path style="fill:#0e6eb4; stroke:none;" d="M97 256L98 257L97 256M120 256L121 257L120 256z"/>
<path style="fill:#acadb3; stroke:none;" d="M121 256L122 257L121 256M275 256L276 257L275 256M122 257L123 258L122 257M273 257L272 259L273 257z"/>
<path style="fill:#0e6eb4; stroke:none;" d="M274 257L275 258L274 257z"/>
<path style="fill:#1e608f; stroke:none;" d="M275 257L264 264L264 265L273 263L275 257M282 257L283 258L282 257z"/>
<path style="fill:#acadb3; stroke:none;" d="M298 257L299 258L298 257M98 258L99 259L98 258z"/>
<path style="fill:#1e608f; stroke:none;" d="M100 258L103 261L100 258z"/>
<path style="fill:#0e6eb4; stroke:none;" d="M123 258L124 259L123 258z"/>
<path style="fill:#1e608f; stroke:none;" d="M288 258L288 261L291 260L291 259L288 258z"/>
<path style="fill:#acadb3; stroke:none;" d="M297 258L298 259L297 258M125 259L126 260L125 259z"/>
<path style="fill:#0e6eb4; stroke:none;" d="M271 259L272 260L271 259z"/>
<path style="fill:#acadb3; stroke:none;" d="M252 287L263 302L275 296L277 300L278 300L277 295L278 295L280 296L279 304L282 304L283 310L286 306L291 309L291 313L286 317L299 309L299 308L287 305L287 304L297 306L294 305L294 304L301 306L309 300L309 299L304 300L306 296L303 294L299 296L299 291L304 293C302.485 290.271 298.38 285.997 298.421 282.808C298.461 279.738 302.554 278.73 303.122 275.816C303.821 272.231 298.122 262.853 295.363 260.647C291.656 257.683 286.087 262.655 283 264.576C274.139 270.092 256.206 277.224 252 287M296 259L297 260L296 259z"/>
<path style="fill:#1e608f; stroke:none;" d="M120 260L121 261L120 260z"/>
<path style="fill:#acadb3; stroke:none;" d="M127 260L127 261L136 266L136 265L127 260M269 260L270 261L269 260z"/>
<path style="fill:#1e608f; stroke:none;" d="M104 261L109 266L104 261M121 261L122 262L121 261M127 261L128 262L127 261z"/>
<path style="fill:#0e6eb4; stroke:none;" d="M268 261L269 262L268 261z"/>
<path style="fill:#acadb3; stroke:none;" d="M103 262L104 263L103 262z"/>
<path style="fill:#1e608f; stroke:none;" d="M128 262C134.495 269.856 148.151 274.326 158 276L158 275L128 262z"/>
<path style="fill:#0e6eb4; stroke:none;" d="M129 262L130 263L129 262z"/>
<path style="fill:#acadb3; stroke:none;" d="M266 262L267 263L266 262M104 263L105 264L104 263M264 263L265 264L264 263z"/>
<path style="fill:#1e608f; stroke:none;" d="M280 263L273 269L273 270L285 264L280 263z"/>
<path style="fill:#fbfcfd; stroke:none;" d="M287 263L288 264L287 263z"/>
<path style="fill:#acadb3; stroke:none;" d="M105 264L106 265L105 264M262 264L261 266L262 264M107 265L108 266L107 265z"/>
<path style="fill:#0e6eb4; stroke:none;" d="M134 265L135 266L134 265z"/>
<path style="fill:#1e608f; stroke:none;" d="M262 265L263 266L262 265z"/>
<path style="fill:#acadb3; stroke:none;" d="M108 266L109 267L108 266z"/>
<path style="fill:#1e608f; stroke:none;" d="M110 266L111 267L110 266z"/>
<path style="fill:#acadb3; stroke:none;" d="M137 266L138 267L137 266z"/>
<path style="fill:#0e6eb4; stroke:none;" d="M259 266L260 267L259 266z"/>
<path style="fill:#1e608f; stroke:none;" d="M260.667 266.333L261.333 266.667L260.667 266.333z"/>
<path style="fill:#acadb3; stroke:none;" d="M109 267L110 268L109 267z"/>
<path style="fill:#1e608f; stroke:none;" d="M111 267L111 268C124.397 277.595 139.794 286.249 156 290L156 289L138 281.869L111 267z"/>
<path style="fill:#acadb3; stroke:none;" d="M139 267L140 268L139 267M257 267L258 268L257 267z"/>
<path style="fill:#1e608f; stroke:none;" d="M258.667 267.333L259.333 267.667L258.667 267.333z"/>
<path style="fill:#acadb3; stroke:none;" d="M111 268L112 269L111 268M141 268L142 269L141 268M252 269L252 270L256 269L252 269z"/>
<path style="fill:#1e608f; stroke:none;" d="M256.667 268.333L257.333 268.667L256.667 268.333z"/>
<path style="fill:#acadb3; stroke:none;" d="M112 269L114 271L112 269z"/>
<path style="fill:#0e6eb4; stroke:none;" d="M113 269L114 270L113 269z"/>
<path style="fill:#acadb3; stroke:none;" d="M143 269L144 270L143 269z"/>
<path style="fill:#1e608f; stroke:none;" d="M254.667 269.333L255.333 269.667L254.667 269.333M258 269L259 270L258 269z"/>
<path style="fill:#0e6eb4; stroke:none;" d="M114 270L115 271L114 270z"/>
<path style="fill:#acadb3; stroke:none;" d="M145.667 270.333L146.333 270.667L145.667 270.333M250 270L251 271L250 270z"/>
<path style="fill:#0e6eb4; stroke:none;" d="M251 270L252 271L251 270z"/>
<path style="fill:#1e608f; stroke:none;" d="M252.667 270.333L253.333 270.667L252.667 270.333M272 270L273 271L272 270z"/>
<path style="fill:#acadb3; stroke:none;" d="M115 271L116 272L115 271M148 271L149 272L148 271M248 271L249 272L248 271z"/>
<path style="fill:#1e608f; stroke:none;" d="M249 271L249 272L252 272L249 271M271 271L272 272L271 271z"/>
<path style="fill:#acadb3; stroke:none;" d="M116 272L117 273L116 272z"/>
<path style="fill:#0e6eb4; stroke:none;" d="M117 272L118 273L117 272z"/>
<path style="fill:#acadb3; stroke:none;" d="M150.667 272.333L151.333 272.667L150.667 272.333M245 272L246 273L245 272z"/>
<path style="fill:#1e608f; stroke:none;" d="M247.667 272.333L248.333 272.667L247.667 272.333M259 279L270 272L259 279z"/>
<path style="fill:#acadb3; stroke:none;" d="M118 273L119 274L118 273z"/>
<path style="fill:#1e608f; stroke:none;" d="M123 273L124 274L123 273z"/>
<path style="fill:#acadb3; stroke:none;" d="M153 273L154 274L153 273M242.667 273.333L243.333 273.667L242.667 273.333z"/>
<path style="fill:#0e6eb4; stroke:none;" d="M244 273L245 274L244 273z"/>
<path style="fill:#1e608f; stroke:none;" d="M245 273L246 274L245 273z"/>
<path style="fill:#acadb3; stroke:none;" d="M120 274L121 275L120 274z"/>
<path style="fill:#1e608f; stroke:none;" d="M125 274L126 275L125 274z"/>
<path style="fill:#acadb3; stroke:none;" d="M156 274L157 275L156 274M240 274L241 275L240 274z"/>
<path style="fill:#1e608f; stroke:none;" d="M183 283C204.398 281.878 224.415 282.559 245 275C240.203 273.298 234.756 276.638 230 277.764C219.897 280.156 208.401 282.293 198 281.792C193.516 281.575 186.281 279.244 183 283z"/>
<path style="fill:#acadb3; stroke:none;" d="M121 275L122 276L121 275M159 275L159 276L165 277L165 276L159 275M236.667 275.333L237.333 275.667L236.667 275.333M123 276L124 277L123 276z"/>
<path style="fill:#1e608f; stroke:none;" d="M159 276L159 277L182 282L182 281L159 276z"/>
<path style="fill:#0e6eb4; stroke:none;" d="M161 276L162 277L161 276z"/>
<path style="fill:#acadb3; stroke:none;" d="M232.667 276.333L233.333 276.667L232.667 276.333z"/>
<path style="fill:#0e6eb4; stroke:none;" d="M234 276L235 277L234 276z"/>
<path style="fill:#acadb3; stroke:none;" d="M125 277L126 278L125 277z"/>
<path style="fill:#0e6eb4; stroke:none;" d="M164.667 277.333L165.333 277.667L164.667 277.333z"/>
<path style="fill:#acadb3; stroke:none;" d="M166.667 277.333L167.333 277.667L166.667 277.333M228 277L228 278L231 278L228 277z"/>
<path style="fill:#0e6eb4; stroke:none;" d="M231 277L232 278L231 277z"/>
<path style="fill:#1e608f; stroke:none;" d="M242 277L243 278L242 277z"/>
<path style="fill:#0e6eb4; stroke:none;" d="M262 277L263 278L262 277M127.667 278.333L128.333 278.667L127.667 278.333M170 278L171 279L170 278z"/>
<path style="fill:#acadb3; stroke:none;" d="M171.667 278.333L172.333 278.667L171.667 278.333M224 278L224 279L227 279L224 278M128.667 279.333L129.333 279.667L128.667 279.333z"/>
<path style="fill:#0e6eb4; stroke:none;" d="M174.667 279.333L175.333 279.667L174.667 279.333z"/>
<path style="fill:#acadb3; stroke:none;" d="M176 279L176 280L179 280L176 279M218 279L218 280L222 280L218 279z"/>
<path style="fill:#1e608f; stroke:none;" d="M256 281L259 279L256 281z"/>
<path style="fill:#acadb3; stroke:none;" d="M130 280L131 281L130 280z"/>
<path style="fill:#0e6eb4; stroke:none;" d="M131 280L132 281L131 280M181 280L182 281L181 280z"/>
<path style="fill:#acadb3; stroke:none;" d="M182 280L182 281L188 281L182 280M209 280L209 281L215 281L209 280z"/>
<path style="fill:#0e6eb4; stroke:none;" d="M215 280L216 281L215 280z"/>
<path style="fill:#acadb3; stroke:none;" d="M132.667 281.333L133.333 281.667L132.667 281.333z"/>
<path style="fill:#0e6eb4; stroke:none;" d="M190 281L191 282L190 281M195 281L195 282L198 282L195 281z"/>
<path style="fill:#acadb3; stroke:none;" d="M198 281L198 282L201 282L198 281z"/>
<path style="fill:#0e6eb4; stroke:none;" d="M201.667 281.333L202.333 281.667L201.667 281.333z"/>
<path style="fill:#1e608f; stroke:none;" d="M255 281L256 282L255 281z"/>
<path style="fill:#acadb3; stroke:none;" d="M134.667 282.333L135.333 282.667L134.667 282.333z"/>
<path style="fill:#1e608f; stroke:none;" d="M253 282L254 283L253 282z"/>
<path style="fill:#acadb3; stroke:none;" d="M137 283L138 284L137 283M139 284L140 285L139 284z"/>
<path style="fill:#1e608f; stroke:none;" d="M251 284L251 286L253 286L253 284L251 284z"/>
<path style="fill:#fbfcfd; stroke:none;" d="M254 284L255 285L254 284z"/>
<path style="fill:#acadb3; stroke:none;" d="M141.667 285.333L142.333 285.667L141.667 285.333z"/>
<path style="fill:#fbfcfd; stroke:none;" d="M289 287L289 288L297 285L296 285L295 287L289 287z"/>
<path style="fill:#acadb3; stroke:none;" d="M144 286L145 287L144 286z"/>
<path style="fill:#0e6eb4; stroke:none;" d="M145 286L146 287L145 286z"/>
<path style="fill:#1e608f; stroke:none;" d="M249.667 286.333L250.333 286.667L249.667 286.333z"/>
<path style="fill:#acadb3; stroke:none;" d="M146.667 287.333L147.333 287.667L146.667 287.333M249 287L250 288L249 287M149.667 288.333L150.333 288.667L149.667 288.333z"/>
<path style="fill:#1e608f; stroke:none;" d="M241 289L241 290L246 289L241 289z"/>
<path style="fill:#acadb3; stroke:none;" d="M246.667 288.333L247.333 288.667L246.667 288.333M152.667 289.333L153.333 289.667L152.667 289.333z"/>
<path style="fill:#1e608f; stroke:none;" d="M159 289L162 291L162 290L159 289M162 291L162 292C189.521 297.185 212.649 294.683 240 291L240 289L205 294.961L162 291z"/>
<path style="fill:#acadb3; stroke:none;" d="M243.667 289.333L244.333 289.667L243.667 289.333z"/>
<path style="fill:#fbfcfd; stroke:none;" d="M279 294L279 295L285 293L285 294L281 295L281 296L288 294L285 292L288 289L279 294z"/>
<path style="fill:#acadb3; stroke:none;" d="M328 290L328 291L332 290L336 296C333.971 292.253 332.56 289.321 328 290M155.667 290.333L156.333 290.667L155.667 290.333z"/>
<path style="fill:#1e608f; stroke:none;" d="M157.667 290.333L158.333 290.667L157.667 290.333z"/>
<path style="fill:#acadb3; stroke:none;" d="M240.667 290.333L241.333 290.667L240.667 290.333z"/>
<path style="fill:#fbfcfd; stroke:none;" d="M296 290L296 293L297 293L296 290z"/>
<path style="fill:#f05f25; stroke:none;" d="M267 329L288.305 364L326.612 425L340.797 447L347.104 453.67L365 443.36L410 416C405.199 401.405 393.142 386.781 384.667 374C366.829 347.098 346.314 318.896 332 290L311 300.989L267 329z"/>
<path style="fill:#acadb3; stroke:none;" d="M158.667 291.333L159.333 291.667L158.667 291.333M236.667 291.333L237.333 291.667L236.667 291.333M326 291L327 292L326 291M162 292L162 293L165 293L162 292M232 292L232 293L235 293L232 292M324.667 292.333L325.333 292.667L324.667 292.333M167.667 293.333L168.333 293.667L167.667 293.333z"/>
<path style="fill:#0e6eb4; stroke:none;" d="M169.667 293.333L170.333 293.667L169.667 293.333M227 293L228 294L227 293z"/>
<path style="fill:#acadb3; stroke:none;" d="M228.667 293.333L229.333 293.667L228.667 293.333M323 293L324 294L323 293M171 294L171 295L175 295L171 294z"/>
<path style="fill:#0e6eb4; stroke:none;" d="M175 294L176 295L175 294M220.667 294.333L221.333 294.667L220.667 294.333z"/>
<path style="fill:#acadb3; stroke:none;" d="M222 294L222 295L226 295L222 294z"/>
<path style="fill:#fbfcfd; stroke:none;" d="M296.333 294.667L296.667 295.333L296.333 294.667z"/>
<path style="fill:#acadb3; stroke:none;" d="M304.333 294.667L304.667 295.333L304.333 294.667M321 294L322 295L321 294M178 295L178 296L182 296L178 295z"/>
<path style="fill:#0e6eb4; stroke:none;" d="M182.667 295.333L183.333 295.667L182.667 295.333M213.667 295.333L214.333 295.667L213.667 295.333z"/>
<path style="fill:#acadb3; stroke:none;" d="M215 295L215 296L219 296L215 295M320 295L321 296L320 295M187 296L187 297L210 297L187 296M318 296L319 297L318 296M316 297L317 298L316 297M336 297L337 298L336 297M315 298L316 299L315 298M337.333 298.667L337.667 299.333L337.333 298.667M313 299L314 300L313 299M278.333 300.667L278.667 301.333L278.333 300.667M338 300L339 301L338 300M307 302L307 303L311 302L307 302M339 302L340 303L339 302M305.667 303.333L306.333 303.667L305.667 303.333M340.333 303.667L340.667 304.333L340.333 303.667z"/>
<path style="fill:#fbfcfd; stroke:none;" d="M284 304L283 307L284 304z"/>
<path style="fill:#acadb3; stroke:none;" d="M304 304L305 305L304 304M303 305L304 306L303 305M341 305L342 306L341 305M296 308L299 306L296 308M301.667 306.333L302.333 306.667L301.667 306.333M342 306L343 307L342 306M300 307L301 308L300 307M286 308L287 314L289 311L286 308M343 308L344 309L343 308z"/>
<path style="fill:#fbfcfd; stroke:none;" d="M292 312L295 309L292 312z"/>
<path style="fill:#acadb3; stroke:none;" d="M344 310L345 311L344 310z"/>
<path style="fill:#fbfcfd; stroke:none;" d="M286 311L287 312L286 311z"/>
<path style="fill:#acadb3; stroke:none;" d="M345 311L346 312L345 311M346 313L347 314L346 313M347.333 314.667L347.667 315.333L347.333 314.667M348 316L349 317L348 316M284 317L285 318L284 317M283 318L284 319L283 318M349 318L350 319L349 318M282 319L283 320L282 319M350 319L351 320L350 319M280 320L281 321L280 320M351 320L352 321L351 320M278 321L279 322L278 321M277 322L278 323L277 322M275 323L276 324L275 323M352 323L353 324L352 323M274 324L275 325L274 324M353 324L354 325L353 324M272 325L273 326L272 325M354.333 325.667L354.667 326.333L354.333 325.667M270.667 326.333L271.333 326.667L270.667 326.333M269 327L270 328L269 327M355 327L356 328L355 327M267 328L268 329L267 328M356 329L357 330L356 329M357 330L358 331L357 330M267 331L268 332L267 331M268 332L269 333L268 332M358 332L359 333L358 332M359 333L360 334L359 333M269 334L270 335L269 334M360 335L361 336L360 335M271 337L272 338L271 337M361 337L362 338L361 337M362 338L363 339L362 338M272 339L273 340L272 339M273 340L274 341L273 340M363 340L364 341L363 340M364 341L365 342L364 341M274 342L275 343L274 342M365 343L366 344L365 343M366.333 344.667L366.667 345.333L366.333 344.667M276 345L277 346L276 345M277.333 346.667L277.667 347.333L277.333 346.667M367 346L368 347L367 346M278 348L279 349L278 348M368 348L369 349L368 348M369 349L371 352L369 349M279 350L280 351L279 350M371.333 352.667L371.667 353.333L371.333 352.667M281 353L282 354L281 353M282.333 354.667L282.667 355.333L282.333 354.667M372 354L373 355L372 354M283 356L284 357L283 356M373 356L374 357L373 356M374 357L375 358L374 357M284 358L285 359L284 358M375.333 358.667L375.667 359.333L375.333 358.667M285 359L286 360L285 359M376.333 360.667L376.667 361.333L376.333 360.667M286 361L287 362L286 361M287 362L288 363L287 362M377 362L378 363L377 362M378 363L379 364L378 363M288 364L289 365L288 364M289.333 365.667L289.667 366.333L289.333 365.667M379 365L380 366L379 365M380.333 366.667L380.667 367.333L380.333 366.667M290 367L291 368L290 367M381.333 368.667L381.667 369.333L381.333 368.667M291 369L292 370L291 369M382 370L383 371L382 370M383.333 371.667L383.667 372.333L383.333 371.667M293 372L294 373L293 372M384 373L385 374L384 373M294 374L295 375L294 374M385.333 374.667L385.667 375.333L385.333 374.667M295 375L296 376L295 375M386 376L387 377L386 376M296 377L297 378L296 377M297 378L298 379L297 378M387 378L388 379L387 378M298 380L299 381L298 380M299 381L300 382L299 381M389 381L390 382L389 381M300 383L301 384L300 383M301.333 384.667L301.667 385.333L301.333 384.667M391 384L392 385L391 384M302 386L303 387L302 386M392 386L393 387L392 386M393 387L394 388L393 387M303 388L304 389L303 388M304 389L306 392L304 389M394 389L395 390L394 389M395.333 390.667L395.667 391.333L395.333 390.667M306.333 392.667L306.667 393.333L306.333 392.667M396 392L397 393L396 392M397 393L398 394L397 393M307 394L308 395L307 394M398 395L399 396L398 395M308 396L309 397L308 396M309 397L310 398L309 397M399 397L400 398L399 397M400.333 398.667L400.667 399.333L400.333 398.667M310 399L311 400L310 399M311.333 400.667L311.667 401.333L311.333 400.667M401 400L402 401L401 400M402.333 401.667L402.667 402.333L402.333 401.667M312 402L313 403L312 402M403 403L404 404L403 403M314 405L315 406L314 405M404 405L405 406L404 405M315.333 406.667L315.667 407.333L315.333 406.667M405 406L406 407L405 406M316.333 408.667L316.667 409.333L316.333 408.667M406 408L408 411L406 408M317 410L318 411L317 410M318.333 411.667L318.667 412.333L318.333 411.667M408 411L409 412L408 411M409.333 412.667L409.667 413.333L409.333 412.667M319 413L320 414L319 413M410.333 414.667L410.667 415.333L410.333 414.667M320 415L321 416L320 415M321 416L322 417L321 416z"/>
<path style="fill:#1e608f; stroke:none;" d="M348 458L367 448L368 447L367 444C382.607 439.985 397.05 425.885 411 418L416 424L412 416C395.064 419.884 376.523 436.224 362 445.657C357.627 448.497 347.835 452.109 348 458z"/>
<path style="fill:#acadb3; stroke:none;" d="M406.667 417.333L407.333 417.667L406.667 417.333M412 417L413 418L412 417M322 418L323 419L322 418M404.667 418.333L405.333 418.667L404.667 418.333z"/>
<path style="fill:#0e6eb4; stroke:none;" d="M367 444L368 447L367 448L347 457L347 458L349 461C352.045 461.391 352.073 463.126 352 466L356 472L359 474L360 474L359 471L360 469L368 468C369.221 463.877 373.847 460.799 378 460L384 458L387 456L392 449L400 448L419 434L417 424L413 424L411 418L367 444z"/>
<path style="fill:#acadb3; stroke:none;" d="M323.333 419.667L323.667 420.333L323.333 419.667M403 419L404 420L403 419M413 419L414 420L413 419M401.667 420.333L402.333 420.667L401.667 420.333M414 420L415 421L414 420M324 421L325 422L324 421M399.667 421.333L400.333 421.667L399.667 421.333M396 424L399 422L396 424M415 422L416 423L415 422M325 423L326 424L325 423M326.333 424.667L326.667 425.333L326.333 424.667M395 424L396 425L395 424z"/>
<path style="fill:#1e608f; stroke:none;" d="M416 425L419 434C412.142 436.498 404.41 441.131 400 447C408.439 443.009 426.921 435.129 416 425z"/>
<path style="fill:#acadb3; stroke:none;" d="M417 425L418 426L417 425M327 426L328 427L327 426M392 426L393 427L392 426M390 427L391 428L390 427M418 427L419 428L418 427M328 428L329 429L328 428M389 428L390 429L389 428M419 428L420 429L419 428M329 429L330 430L329 429M387 429L388 430L387 429M330.333 430.667L330.667 431.333L330.333 430.667M420 430L421 431L420 430M384 431L385 432L384 431M421.333 431.667L421.667 432.333L421.333 431.667M331 432L332 433L331 432M383 432L384 433L383 432M381 433L382 434L381 433z"/>
<path style="fill:#1e608f; stroke:none;" d="M415 433L416 434L415 433z"/>
<path style="fill:#0e6eb4; stroke:none;" d="M421 433L422 434L421 433z"/>
<path style="fill:#acadb3; stroke:none;" d="M332 434L333 435L332 434M420 434L421 435L420 434M333 435L334 436L333 435M378 435L379 436L378 435z"/>
<path style="fill:#0e6eb4; stroke:none;" d="M418 435L419 436L418 435z"/>
<path style="fill:#acadb3; stroke:none;" d="M419 435L420 436L419 435M417 436L418 437L417 436M334 437L335 438L334 437M375 437L376 438L375 437M415 437L416 438L415 437M335.333 438.667L335.667 439.333L335.333 438.667M414 438L415 439L414 438M371 439L372 440L371 439M412 439L413 440L412 439M336 440L337 441L336 440M370 440L371 441L370 440M411 440L412 441L411 440M337.333 441.667L337.667 442.333L337.333 441.667M409 441L410 442L409 441M364 444L367 442L364 444z"/>
<path style="fill:#1e608f; stroke:none;" d="M377 445L380 442L377 445z"/>
<path style="fill:#0e6eb4; stroke:none;" d="M407 442L408 443L407 442z"/>
<path style="fill:#acadb3; stroke:none;" d="M338 443L339 444L338 443M406 443L407 444L406 443M339.333 444.667L339.667 445.333L339.333 444.667M363 444L364 445L363 444z"/>
<path style="fill:#1e608f; stroke:none;" d="M400 444L401 445L400 444z"/>
<path style="fill:#0e6eb4; stroke:none;" d="M404 444L405 445L404 444z"/>
<path style="fill:#acadb3; stroke:none;" d="M361.667 445.333L362.333 445.667L361.667 445.333M403 445L404 446L403 445M340.333 446.667L340.667 447.333L340.333 446.667M360 446L361 447L360 446M401 446L402 447L401 446M358.667 447.333L359.333 447.667L358.667 447.333z"/>
<path style="fill:#1e608f; stroke:none;" d="M397 447L392 449L386 454L386 455C389.51 453.889 397.114 451.25 397 447z"/>
<path style="fill:#acadb3; stroke:none;" d="M341 448L342 449L341 448M356.667 448.333L357.333 448.667L356.667 448.333M398 448L399 449L398 448M342.333 449.667L342.667 450.333L342.333 449.667M355 449L356 450L355 449M396 449L397 450L396 449M353.667 450.333L354.333 450.667L353.667 450.333z"/>
<path style="fill:#1e608f; stroke:none;" d="M384 450L385 451L384 450z"/>
<path style="fill:#acadb3; stroke:none;" d="M395 450L396 451L395 450M343 451L344 452L343 451M351.667 451.333L352.333 451.667L351.667 451.333M393 451L394 452L393 451M350 452L349 454L351 454L350 452M391.667 452.333L392.333 452.667L391.667 452.333M344 453L345 454L344 453M390 453L391 454L390 453M345 454L346 455L345 454M347.667 454.333L348.333 454.667L347.667 454.333M388 454L389 455L388 454M346.333 455.667L346.667 456.333L346.333 455.667z"/>
<path style="fill:#1e608f; stroke:none;" d="M383 457L386 455L383 457z"/>
<path style="fill:#acadb3; stroke:none;" d="M387 455L388 456L387 455M385 456L386 457L385 456z"/>
<path style="fill:#1e608f; stroke:none;" d="M378 460L367 467L382 457L378 460z"/>
<path style="fill:#acadb3; stroke:none;" d="M384 457L385 458L384 457M347 458L348 459L347 458M382 458L383 459L382 458M348 459L349 460L348 459z"/>
<path style="fill:#1e608f; stroke:none;" d="M349 459L350 460L349 459z"/>
<path style="fill:#0e6eb4; stroke:none;" d="M380 459L381 460L380 459z"/>
<path style="fill:#1e608f; stroke:none;" d="M350 460L352 465L353 465L350 460z"/>
<path style="fill:#acadb3; stroke:none;" d="M379 460L380 461L379 460M349 461L350 462L349 461M377 461L378 462L377 461M350 462L351 463L350 462z"/>
<path style="fill:#0e6eb4; stroke:none;" d="M375 462L376 463L375 462z"/>
<path style="fill:#acadb3; stroke:none;" d="M376 462L377 463L376 462M374 463L375 464L374 463M351 464L352 465L351 464z"/>
<path style="fill:#1e608f; stroke:none;" d="M354 464L355 465L354 464z"/>
<path style="fill:#0e6eb4; stroke:none;" d="M372 464L373 465L372 464z"/>
<path style="fill:#acadb3; stroke:none;" d="M373 464L374 465L373 464z"/>
<path style="fill:#1e608f; stroke:none;" d="M353 465L357 471L353 465z"/>
<path style="fill:#acadb3; stroke:none;" d="M371 465L372 466L371 465M352 466L353 467L352 466z"/>
<path style="fill:#1e608f; stroke:none;" d="M362 466L363 467L362 466z"/>
<path style="fill:#acadb3; stroke:none;" d="M369 466L370 467L369 466M353 467L354 468L353 467z"/>
<path style="fill:#1e608f; stroke:none;" d="M359 471L359 472L366 467L359 471z"/>
<path style="fill:#acadb3; stroke:none;" d="M368 467L369 468L368 467M366 468L367 469L366 468M354 469L355 470L354 469M355 470L356 471L355 470M363 470L364 471L363 470z"/>
<path style="fill:#1e608f; stroke:none;" d="M357 471L359 474L357 471z"/>
<path style="fill:#acadb3; stroke:none;" d="M361 471L362 472L361 471M356.333 472.667L356.667 473.333L356.333 472.667M360.333 472.667L360.667 473.333L360.333 472.667z"/>
</svg>
